solid OpenSCAD_Model
  facet normal 0 0 -1
    outer loop
      vertex -2.99408 0.188372 -2.5
      vertex -2.97634 0.376 -2.5
      vertex -3 0 -2.5
    endloop
  endfacet
  facet normal 0 0 -1
    outer loop
      vertex -3 0 -2.5
      vertex -2.97634 0.376 -2.5
      vertex -2.94686 0.562144 -2.5
    endloop
  endfacet
  facet normal 0 0 -1
    outer loop
      vertex -3 0 -2.5
      vertex -2.94686 0.562144 -2.5
      vertex -2.90575 0.74607 -2.5
    endloop
  endfacet
  facet normal 0 0 -1
    outer loop
      vertex -3 0 -2.5
      vertex -2.90575 0.74607 -2.5
      vertex -2.85317 0.927051 -2.5
    endloop
  endfacet
  facet normal 0 0 -1
    outer loop
      vertex -3 0 -2.5
      vertex -2.85317 0.927051 -2.5
      vertex -2.78933 1.10437 -2.5
    endloop
  endfacet
  facet normal 0 0 -1
    outer loop
      vertex -3 0 -2.5
      vertex -2.78933 1.10437 -2.5
      vertex -2.71448 1.27734 -2.5
    endloop
  endfacet
  facet normal 0 0 -1
    outer loop
      vertex -3 0 -2.5
      vertex -2.71448 1.27734 -2.5
      vertex -2.62892 1.44526 -2.5
    endloop
  endfacet
  facet normal 0 0 -1
    outer loop
      vertex -3 0 -2.5
      vertex -2.62892 1.44526 -2.5
      vertex -2.53298 1.60748 -2.5
    endloop
  endfacet
  facet normal 0 0 -1
    outer loop
      vertex -3 0 -2.5
      vertex -2.53298 1.60748 -2.5
      vertex -2.42705 1.76336 -2.5
    endloop
  endfacet
  facet normal 0 0 -1
    outer loop
      vertex -3 0 -2.5
      vertex -2.42705 1.76336 -2.5
      vertex -2.31154 1.91227 -2.5
    endloop
  endfacet
  facet normal 0 0 -1
    outer loop
      vertex -3 0 -2.5
      vertex -2.31154 1.91227 -2.5
      vertex -2.18691 2.05364 -2.5
    endloop
  endfacet
  facet normal 0 0 -1
    outer loop
      vertex -3 0 -2.5
      vertex -2.18691 2.05364 -2.5
      vertex -2.05364 2.18691 -2.5
    endloop
  endfacet
  facet normal 0 0 -1
    outer loop
      vertex -3 0 -2.5
      vertex -2.05364 2.18691 -2.5
      vertex -1.91227 2.31154 -2.5
    endloop
  endfacet
  facet normal 0 0 -1
    outer loop
      vertex -3 0 -2.5
      vertex -1.91227 2.31154 -2.5
      vertex -1.76336 2.42705 -2.5
    endloop
  endfacet
  facet normal 0 0 -1
    outer loop
      vertex -3 0 -2.5
      vertex -1.76336 2.42705 -2.5
      vertex -1.60748 2.53298 -2.5
    endloop
  endfacet
  facet normal 0 0 -1
    outer loop
      vertex -3 0 -2.5
      vertex -1.60748 2.53298 -2.5
      vertex -1.44526 2.62892 -2.5
    endloop
  endfacet
  facet normal 0 0 -1
    outer loop
      vertex -3 0 -2.5
      vertex -1.44526 2.62892 -2.5
      vertex -1.27734 2.71448 -2.5
    endloop
  endfacet
  facet normal 0 0 -1
    outer loop
      vertex -3 0 -2.5
      vertex -1.27734 2.71448 -2.5
      vertex -1.10437 2.78933 -2.5
    endloop
  endfacet
  facet normal 0 0 -1
    outer loop
      vertex -3 0 -2.5
      vertex -1.10437 2.78933 -2.5
      vertex -0.927051 2.85317 -2.5
    endloop
  endfacet
  facet normal 0 0 -1
    outer loop
      vertex -3 0 -2.5
      vertex -0.927051 2.85317 -2.5
      vertex -0.74607 2.90575 -2.5
    endloop
  endfacet
  facet normal 0 0 -1
    outer loop
      vertex -3 0 -2.5
      vertex -0.74607 2.90575 -2.5
      vertex -0.562144 2.94686 -2.5
    endloop
  endfacet
  facet normal 0 0 -1
    outer loop
      vertex -3 0 -2.5
      vertex -0.562144 2.94686 -2.5
      vertex -0.376 2.97634 -2.5
    endloop
  endfacet
  facet normal 0 0 -1
    outer loop
      vertex -3 0 -2.5
      vertex -0.376 2.97634 -2.5
      vertex -0.188372 2.99408 -2.5
    endloop
  endfacet
  facet normal 0 0 -1
    outer loop
      vertex -3 0 -2.5
      vertex -0.188372 2.99408 -2.5
      vertex 0 3 -2.5
    endloop
  endfacet
  facet normal 0 0 -1
    outer loop
      vertex -3 0 -2.5
      vertex 0 3 -2.5
      vertex 0.188372 2.99408 -2.5
    endloop
  endfacet
  facet normal 0 0 -1
    outer loop
      vertex -3 0 -2.5
      vertex 0.188372 2.99408 -2.5
      vertex 0.376 2.97634 -2.5
    endloop
  endfacet
  facet normal 0 0 -1
    outer loop
      vertex -3 0 -2.5
      vertex 0.376 2.97634 -2.5
      vertex 0.562144 2.94686 -2.5
    endloop
  endfacet
  facet normal 0 0 -1
    outer loop
      vertex -3 0 -2.5
      vertex 0.562144 2.94686 -2.5
      vertex 0.74607 2.90575 -2.5
    endloop
  endfacet
  facet normal 0 0 -1
    outer loop
      vertex -3 0 -2.5
      vertex 0.74607 2.90575 -2.5
      vertex 0.927051 2.85317 -2.5
    endloop
  endfacet
  facet normal 0 0 -1
    outer loop
      vertex -3 0 -2.5
      vertex 0.927051 2.85317 -2.5
      vertex 1.10437 2.78933 -2.5
    endloop
  endfacet
  facet normal 0 0 -1
    outer loop
      vertex -3 0 -2.5
      vertex 1.10437 2.78933 -2.5
      vertex 1.27734 2.71448 -2.5
    endloop
  endfacet
  facet normal 0 0 -1
    outer loop
      vertex -3 0 -2.5
      vertex 1.27734 2.71448 -2.5
      vertex 1.44526 2.62892 -2.5
    endloop
  endfacet
  facet normal 0 0 -1
    outer loop
      vertex -3 0 -2.5
      vertex 1.44526 2.62892 -2.5
      vertex 1.60748 2.53298 -2.5
    endloop
  endfacet
  facet normal 0 0 -1
    outer loop
      vertex -3 0 -2.5
      vertex 1.60748 2.53298 -2.5
      vertex 1.76336 2.42705 -2.5
    endloop
  endfacet
  facet normal 0 0 -1
    outer loop
      vertex -3 0 -2.5
      vertex 1.76336 2.42705 -2.5
      vertex 1.91227 2.31154 -2.5
    endloop
  endfacet
  facet normal 0 0 -1
    outer loop
      vertex -3 0 -2.5
      vertex 1.91227 2.31154 -2.5
      vertex 2.05364 2.18691 -2.5
    endloop
  endfacet
  facet normal 0 0 -1
    outer loop
      vertex -3 0 -2.5
      vertex 2.05364 2.18691 -2.5
      vertex 2.18691 2.05364 -2.5
    endloop
  endfacet
  facet normal 0 0 -1
    outer loop
      vertex -3 0 -2.5
      vertex 2.18691 2.05364 -2.5
      vertex 2.31154 1.91227 -2.5
    endloop
  endfacet
  facet normal 0 0 -1
    outer loop
      vertex -3 0 -2.5
      vertex 2.31154 1.91227 -2.5
      vertex 2.42705 1.76336 -2.5
    endloop
  endfacet
  facet normal 0 0 -1
    outer loop
      vertex -3 0 -2.5
      vertex 2.42705 1.76336 -2.5
      vertex 2.53298 1.60748 -2.5
    endloop
  endfacet
  facet normal 0 0 -1
    outer loop
      vertex -3 0 -2.5
      vertex 2.53298 1.60748 -2.5
      vertex 2.62892 1.44526 -2.5
    endloop
  endfacet
  facet normal 0 0 -1
    outer loop
      vertex -3 0 -2.5
      vertex 2.62892 1.44526 -2.5
      vertex 2.71448 1.27734 -2.5
    endloop
  endfacet
  facet normal 0 0 -1
    outer loop
      vertex -3 0 -2.5
      vertex 2.71448 1.27734 -2.5
      vertex 2.78933 1.10437 -2.5
    endloop
  endfacet
  facet normal 0 0 -1
    outer loop
      vertex -3 0 -2.5
      vertex 2.78933 1.10437 -2.5
      vertex 2.85317 0.927051 -2.5
    endloop
  endfacet
  facet normal 0 0 -1
    outer loop
      vertex -3 0 -2.5
      vertex 2.85317 0.927051 -2.5
      vertex 2.90575 0.74607 -2.5
    endloop
  endfacet
  facet normal 0 0 -1
    outer loop
      vertex -3 0 -2.5
      vertex 2.90575 0.74607 -2.5
      vertex 2.94686 0.562144 -2.5
    endloop
  endfacet
  facet normal 0 0 -1
    outer loop
      vertex -3 0 -2.5
      vertex 2.94686 0.562144 -2.5
      vertex 2.97634 0.376 -2.5
    endloop
  endfacet
  facet normal 0 0 -1
    outer loop
      vertex -3 0 -2.5
      vertex 2.97634 0.376 -2.5
      vertex 2.99408 0.188372 -2.5
    endloop
  endfacet
  facet normal 0 0 -1
    outer loop
      vertex -3 0 -2.5
      vertex 2.99408 0.188372 -2.5
      vertex 3 0 -2.5
    endloop
  endfacet
  facet normal 0 0 -1
    outer loop
      vertex -3 0 -2.5
      vertex 3 0 -2.5
      vertex 2.99408 -0.188372 -2.5
    endloop
  endfacet
  facet normal 0 0 -1
    outer loop
      vertex -3 0 -2.5
      vertex 2.99408 -0.188372 -2.5
      vertex 2.97634 -0.376 -2.5
    endloop
  endfacet
  facet normal 0 0 -1
    outer loop
      vertex -3 0 -2.5
      vertex 2.97634 -0.376 -2.5
      vertex 2.94686 -0.562144 -2.5
    endloop
  endfacet
  facet normal 0 0 -1
    outer loop
      vertex -3 0 -2.5
      vertex 2.94686 -0.562144 -2.5
      vertex 2.90575 -0.74607 -2.5
    endloop
  endfacet
  facet normal 0 0 -1
    outer loop
      vertex -3 0 -2.5
      vertex 2.90575 -0.74607 -2.5
      vertex 2.85317 -0.927051 -2.5
    endloop
  endfacet
  facet normal 0 0 -1
    outer loop
      vertex -3 0 -2.5
      vertex 2.85317 -0.927051 -2.5
      vertex 2.78933 -1.10437 -2.5
    endloop
  endfacet
  facet normal 0 0 -1
    outer loop
      vertex -3 0 -2.5
      vertex 2.78933 -1.10437 -2.5
      vertex 2.71448 -1.27734 -2.5
    endloop
  endfacet
  facet normal 0 0 -1
    outer loop
      vertex -3 0 -2.5
      vertex 2.71448 -1.27734 -2.5
      vertex 2.62892 -1.44526 -2.5
    endloop
  endfacet
  facet normal 0 0 -1
    outer loop
      vertex -3 0 -2.5
      vertex 2.62892 -1.44526 -2.5
      vertex 2.53298 -1.60748 -2.5
    endloop
  endfacet
  facet normal 0 0 -1
    outer loop
      vertex -3 0 -2.5
      vertex 2.53298 -1.60748 -2.5
      vertex 2.42705 -1.76336 -2.5
    endloop
  endfacet
  facet normal 0 0 -1
    outer loop
      vertex -3 0 -2.5
      vertex 2.42705 -1.76336 -2.5
      vertex 2.31154 -1.91227 -2.5
    endloop
  endfacet
  facet normal 0 0 -1
    outer loop
      vertex -3 0 -2.5
      vertex 2.31154 -1.91227 -2.5
      vertex 2.18691 -2.05364 -2.5
    endloop
  endfacet
  facet normal 0 0 -1
    outer loop
      vertex -3 0 -2.5
      vertex 2.18691 -2.05364 -2.5
      vertex 2.05364 -2.18691 -2.5
    endloop
  endfacet
  facet normal 0 0 -1
    outer loop
      vertex -3 0 -2.5
      vertex 2.05364 -2.18691 -2.5
      vertex 1.91227 -2.31154 -2.5
    endloop
  endfacet
  facet normal 0 0 -1
    outer loop
      vertex -3 0 -2.5
      vertex 1.91227 -2.31154 -2.5
      vertex 1.76336 -2.42705 -2.5
    endloop
  endfacet
  facet normal 0 0 -1
    outer loop
      vertex -3 0 -2.5
      vertex 1.76336 -2.42705 -2.5
      vertex 1.60748 -2.53298 -2.5
    endloop
  endfacet
  facet normal 0 0 -1
    outer loop
      vertex -3 0 -2.5
      vertex 1.60748 -2.53298 -2.5
      vertex 1.44526 -2.62892 -2.5
    endloop
  endfacet
  facet normal 0 0 -1
    outer loop
      vertex -3 0 -2.5
      vertex 1.44526 -2.62892 -2.5
      vertex 1.27734 -2.71448 -2.5
    endloop
  endfacet
  facet normal 0 0 -1
    outer loop
      vertex -3 0 -2.5
      vertex 1.27734 -2.71448 -2.5
      vertex 1.10437 -2.78933 -2.5
    endloop
  endfacet
  facet normal 0 0 -1
    outer loop
      vertex -3 0 -2.5
      vertex 1.10437 -2.78933 -2.5
      vertex 0.927051 -2.85317 -2.5
    endloop
  endfacet
  facet normal 0 0 -1
    outer loop
      vertex -3 0 -2.5
      vertex 0.927051 -2.85317 -2.5
      vertex 0.74607 -2.90575 -2.5
    endloop
  endfacet
  facet normal 0 0 -1
    outer loop
      vertex -3 0 -2.5
      vertex 0.74607 -2.90575 -2.5
      vertex 0.562144 -2.94686 -2.5
    endloop
  endfacet
  facet normal 0 0 -1
    outer loop
      vertex -3 0 -2.5
      vertex 0.562144 -2.94686 -2.5
      vertex 0.376 -2.97634 -2.5
    endloop
  endfacet
  facet normal 0 0 -1
    outer loop
      vertex -3 0 -2.5
      vertex 0.376 -2.97634 -2.5
      vertex 0.188372 -2.99408 -2.5
    endloop
  endfacet
  facet normal 0 0 -1
    outer loop
      vertex -3 0 -2.5
      vertex 0.188372 -2.99408 -2.5
      vertex 0 -3 -2.5
    endloop
  endfacet
  facet normal 0 0 -1
    outer loop
      vertex -3 0 -2.5
      vertex 0 -3 -2.5
      vertex -0.188372 -2.99408 -2.5
    endloop
  endfacet
  facet normal 0 0 -1
    outer loop
      vertex -3 0 -2.5
      vertex -0.188372 -2.99408 -2.5
      vertex -0.376 -2.97634 -2.5
    endloop
  endfacet
  facet normal 0 0 -1
    outer loop
      vertex -3 0 -2.5
      vertex -0.376 -2.97634 -2.5
      vertex -0.562144 -2.94686 -2.5
    endloop
  endfacet
  facet normal 0 0 -1
    outer loop
      vertex -3 0 -2.5
      vertex -0.562144 -2.94686 -2.5
      vertex -0.74607 -2.90575 -2.5
    endloop
  endfacet
  facet normal 0 0 -1
    outer loop
      vertex -3 0 -2.5
      vertex -0.74607 -2.90575 -2.5
      vertex -0.927051 -2.85317 -2.5
    endloop
  endfacet
  facet normal 0 0 -1
    outer loop
      vertex -3 0 -2.5
      vertex -0.927051 -2.85317 -2.5
      vertex -1.10437 -2.78933 -2.5
    endloop
  endfacet
  facet normal 0 0 -1
    outer loop
      vertex -3 0 -2.5
      vertex -1.10437 -2.78933 -2.5
      vertex -1.27734 -2.71448 -2.5
    endloop
  endfacet
  facet normal 0 0 -1
    outer loop
      vertex -3 0 -2.5
      vertex -1.27734 -2.71448 -2.5
      vertex -1.44526 -2.62892 -2.5
    endloop
  endfacet
  facet normal 0 0 -1
    outer loop
      vertex -3 0 -2.5
      vertex -1.44526 -2.62892 -2.5
      vertex -1.60748 -2.53298 -2.5
    endloop
  endfacet
  facet normal 0 0 -1
    outer loop
      vertex -3 0 -2.5
      vertex -1.60748 -2.53298 -2.5
      vertex -1.76336 -2.42705 -2.5
    endloop
  endfacet
  facet normal 0 0 -1
    outer loop
      vertex -3 0 -2.5
      vertex -1.76336 -2.42705 -2.5
      vertex -1.91227 -2.31154 -2.5
    endloop
  endfacet
  facet normal 0 0 -1
    outer loop
      vertex -3 0 -2.5
      vertex -1.91227 -2.31154 -2.5
      vertex -2.05364 -2.18691 -2.5
    endloop
  endfacet
  facet normal 0 0 -1
    outer loop
      vertex -3 0 -2.5
      vertex -2.05364 -2.18691 -2.5
      vertex -2.18691 -2.05364 -2.5
    endloop
  endfacet
  facet normal 0 0 -1
    outer loop
      vertex -3 0 -2.5
      vertex -2.18691 -2.05364 -2.5
      vertex -2.31154 -1.91227 -2.5
    endloop
  endfacet
  facet normal 0 0 -1
    outer loop
      vertex -3 0 -2.5
      vertex -2.31154 -1.91227 -2.5
      vertex -2.42705 -1.76336 -2.5
    endloop
  endfacet
  facet normal 0 0 -1
    outer loop
      vertex -3 0 -2.5
      vertex -2.42705 -1.76336 -2.5
      vertex -2.53298 -1.60748 -2.5
    endloop
  endfacet
  facet normal 0 0 -1
    outer loop
      vertex -3 0 -2.5
      vertex -2.53298 -1.60748 -2.5
      vertex -2.62892 -1.44526 -2.5
    endloop
  endfacet
  facet normal 0 0 -1
    outer loop
      vertex -3 0 -2.5
      vertex -2.62892 -1.44526 -2.5
      vertex -2.71448 -1.27734 -2.5
    endloop
  endfacet
  facet normal 0 0 -1
    outer loop
      vertex -3 0 -2.5
      vertex -2.71448 -1.27734 -2.5
      vertex -2.78933 -1.10437 -2.5
    endloop
  endfacet
  facet normal 0 0 -1
    outer loop
      vertex -3 0 -2.5
      vertex -2.78933 -1.10437 -2.5
      vertex -2.85317 -0.927051 -2.5
    endloop
  endfacet
  facet normal 0 0 -1
    outer loop
      vertex -3 0 -2.5
      vertex -2.85317 -0.927051 -2.5
      vertex -2.90575 -0.74607 -2.5
    endloop
  endfacet
  facet normal 0 0 -1
    outer loop
      vertex -3 0 -2.5
      vertex -2.90575 -0.74607 -2.5
      vertex -2.94686 -0.562144 -2.5
    endloop
  endfacet
  facet normal 0 0 -1
    outer loop
      vertex -3 0 -2.5
      vertex -2.94686 -0.562144 -2.5
      vertex -2.97634 -0.376 -2.5
    endloop
  endfacet
  facet normal 0 0 -1
    outer loop
      vertex -3 0 -2.5
      vertex -2.97634 -0.376 -2.5
      vertex -2.99408 -0.188372 -2.5
    endloop
  endfacet
  facet normal 0.999507 0.0314117 0
    outer loop
      vertex 2.99408 0.188372 -2.5
      vertex 2.99408 0.188372 2.5
      vertex 3 0 2.5
    endloop
  endfacet
  facet normal 0.999507 0.0314117 0
    outer loop
      vertex 3 0 -2.5
      vertex 2.99408 0.188372 -2.5
      vertex 3 0 2.5
    endloop
  endfacet
  facet normal 0.995562 0.094108 0
    outer loop
      vertex 2.97634 0.376 -2.5
      vertex 2.97634 0.376 2.5
      vertex 2.99408 0.188372 2.5
    endloop
  endfacet
  facet normal 0.995562 0.094108 0
    outer loop
      vertex 2.99408 0.188372 -2.5
      vertex 2.97634 0.376 -2.5
      vertex 2.99408 0.188372 2.5
    endloop
  endfacet
  facet normal -0.999507 0.0314117 0
    outer loop
      vertex -3 0 2.5
      vertex -2.99408 0.188372 2.5
      vertex -3 0 -2.5
    endloop
  endfacet
  facet normal -0.999507 0.0314117 0
    outer loop
      vertex -3 0 -2.5
      vertex -2.99408 0.188372 2.5
      vertex -2.99408 0.188372 -2.5
    endloop
  endfacet
  facet normal -0.999507 -0.0314117 0
    outer loop
      vertex -2.99408 -0.188372 -2.5
      vertex -2.99408 -0.188372 2.5
      vertex -3 0 -2.5
    endloop
  endfacet
  facet normal -0.999507 -0.0314117 0
    outer loop
      vertex -3 0 -2.5
      vertex -2.99408 -0.188372 2.5
      vertex -3 0 2.5
    endloop
  endfacet
  facet normal -0.995562 -0.094108 0
    outer loop
      vertex -2.97634 -0.376 -2.5
      vertex -2.97634 -0.376 2.5
      vertex -2.99408 -0.188372 -2.5
    endloop
  endfacet
  facet normal -0.995562 -0.094108 0
    outer loop
      vertex -2.99408 -0.188372 -2.5
      vertex -2.97634 -0.376 2.5
      vertex -2.99408 -0.188372 2.5
    endloop
  endfacet
  facet normal -0.987689 -0.156433 0
    outer loop
      vertex -2.94686 -0.562144 -2.5
      vertex -2.94686 -0.562144 2.5
      vertex -2.97634 -0.376 -2.5
    endloop
  endfacet
  facet normal -0.987689 -0.156433 0
    outer loop
      vertex -2.97634 -0.376 -2.5
      vertex -2.94686 -0.562144 2.5
      vertex -2.97634 -0.376 2.5
    endloop
  endfacet
  facet normal -0.975916 -0.218147 0
    outer loop
      vertex -2.90575 -0.74607 -2.5
      vertex -2.90575 -0.74607 2.5
      vertex -2.94686 -0.562144 -2.5
    endloop
  endfacet
  facet normal -0.975916 -0.218147 0
    outer loop
      vertex -2.94686 -0.562144 -2.5
      vertex -2.90575 -0.74607 2.5
      vertex -2.94686 -0.562144 2.5
    endloop
  endfacet
  facet normal -0.960295 -0.278987 0
    outer loop
      vertex -2.85317 -0.927051 -2.5
      vertex -2.85317 -0.927051 2.5
      vertex -2.90575 -0.74607 -2.5
    endloop
  endfacet
  facet normal -0.960295 -0.278987 0
    outer loop
      vertex -2.90575 -0.74607 -2.5
      vertex -2.85317 -0.927051 2.5
      vertex -2.90575 -0.74607 2.5
    endloop
  endfacet
  facet normal -0.940879 -0.338742 0
    outer loop
      vertex -2.78933 -1.10437 -2.5
      vertex -2.78933 -1.10437 2.5
      vertex -2.85317 -0.927051 -2.5
    endloop
  endfacet
  facet normal -0.940879 -0.338742 0
    outer loop
      vertex -2.85317 -0.927051 -2.5
      vertex -2.78933 -1.10437 2.5
      vertex -2.85317 -0.927051 2.5
    endloop
  endfacet
  facet normal -0.917755 -0.397147 0
    outer loop
      vertex -2.71448 -1.27734 -2.5
      vertex -2.71448 -1.27734 2.5
      vertex -2.78933 -1.10437 -2.5
    endloop
  endfacet
  facet normal -0.917755 -0.397147 0
    outer loop
      vertex -2.78933 -1.10437 -2.5
      vertex -2.71448 -1.27734 2.5
      vertex -2.78933 -1.10437 2.5
    endloop
  endfacet
  facet normal -0.891007 -0.45399 0
    outer loop
      vertex -2.62892 -1.44526 -2.5
      vertex -2.62892 -1.44526 2.5
      vertex -2.71448 -1.27734 -2.5
    endloop
  endfacet
  facet normal -0.891007 -0.45399 0
    outer loop
      vertex -2.71448 -1.27734 -2.5
      vertex -2.62892 -1.44526 2.5
      vertex -2.71448 -1.27734 2.5
    endloop
  endfacet
  facet normal -0.860742 -0.509041 0
    outer loop
      vertex -2.53298 -1.60748 -2.5
      vertex -2.53298 -1.60748 2.5
      vertex -2.62892 -1.44526 -2.5
    endloop
  endfacet
  facet normal -0.860742 -0.509041 0
    outer loop
      vertex -2.62892 -1.44526 -2.5
      vertex -2.53298 -1.60748 2.5
      vertex -2.62892 -1.44526 2.5
    endloop
  endfacet
  facet normal -0.827081 -0.562083 0
    outer loop
      vertex -2.42705 -1.76336 -2.5
      vertex -2.42705 -1.76336 2.5
      vertex -2.53298 -1.60748 -2.5
    endloop
  endfacet
  facet normal -0.827081 -0.562083 0
    outer loop
      vertex -2.53298 -1.60748 -2.5
      vertex -2.42705 -1.76336 2.5
      vertex -2.53298 -1.60748 2.5
    endloop
  endfacet
  facet normal -0.790155 -0.612907 0
    outer loop
      vertex -2.31154 -1.91227 -2.5
      vertex -2.31154 -1.91227 2.5
      vertex -2.42705 -1.76336 -2.5
    endloop
  endfacet
  facet normal -0.790155 -0.612907 0
    outer loop
      vertex -2.42705 -1.76336 -2.5
      vertex -2.31154 -1.91227 2.5
      vertex -2.42705 -1.76336 2.5
    endloop
  endfacet
  facet normal -0.75011 -0.661313 0
    outer loop
      vertex -2.18691 -2.05364 -2.5
      vertex -2.18691 -2.05364 2.5
      vertex -2.31154 -1.91227 -2.5
    endloop
  endfacet
  facet normal -0.75011 -0.661313 0
    outer loop
      vertex -2.31154 -1.91227 -2.5
      vertex -2.18691 -2.05364 2.5
      vertex -2.31154 -1.91227 2.5
    endloop
  endfacet
  facet normal -0.707107 -0.707107 0
    outer loop
      vertex -2.18691 -2.05364 -2.5
      vertex -2.05364 -2.18691 -2.5
      vertex -2.05364 -2.18691 2.5
    endloop
  endfacet
  facet normal -0.707107 -0.707107 0
    outer loop
      vertex -2.18691 -2.05364 2.5
      vertex -2.18691 -2.05364 -2.5
      vertex -2.05364 -2.18691 2.5
    endloop
  endfacet
  facet normal -0.661313 -0.75011 0
    outer loop
      vertex -2.05364 -2.18691 -2.5
      vertex -1.91227 -2.31154 -2.5
      vertex -1.91227 -2.31154 2.5
    endloop
  endfacet
  facet normal -0.661313 -0.75011 0
    outer loop
      vertex -2.05364 -2.18691 2.5
      vertex -2.05364 -2.18691 -2.5
      vertex -1.91227 -2.31154 2.5
    endloop
  endfacet
  facet normal -0.612907 -0.790155 0
    outer loop
      vertex -1.91227 -2.31154 -2.5
      vertex -1.76336 -2.42705 -2.5
      vertex -1.76336 -2.42705 2.5
    endloop
  endfacet
  facet normal -0.612907 -0.790155 0
    outer loop
      vertex -1.91227 -2.31154 2.5
      vertex -1.91227 -2.31154 -2.5
      vertex -1.76336 -2.42705 2.5
    endloop
  endfacet
  facet normal -0.562083 -0.827081 0
    outer loop
      vertex -1.76336 -2.42705 -2.5
      vertex -1.60748 -2.53298 -2.5
      vertex -1.60748 -2.53298 2.5
    endloop
  endfacet
  facet normal -0.562083 -0.827081 0
    outer loop
      vertex -1.76336 -2.42705 2.5
      vertex -1.76336 -2.42705 -2.5
      vertex -1.60748 -2.53298 2.5
    endloop
  endfacet
  facet normal -0.509041 -0.860742 0
    outer loop
      vertex -1.60748 -2.53298 -2.5
      vertex -1.44526 -2.62892 -2.5
      vertex -1.44526 -2.62892 2.5
    endloop
  endfacet
  facet normal -0.509041 -0.860742 0
    outer loop
      vertex -1.60748 -2.53298 2.5
      vertex -1.60748 -2.53298 -2.5
      vertex -1.44526 -2.62892 2.5
    endloop
  endfacet
  facet normal -0.45399 -0.891007 0
    outer loop
      vertex -1.44526 -2.62892 -2.5
      vertex -1.27734 -2.71448 -2.5
      vertex -1.27734 -2.71448 2.5
    endloop
  endfacet
  facet normal -0.45399 -0.891007 0
    outer loop
      vertex -1.44526 -2.62892 2.5
      vertex -1.44526 -2.62892 -2.5
      vertex -1.27734 -2.71448 2.5
    endloop
  endfacet
  facet normal -0.397147 -0.917755 0
    outer loop
      vertex -1.27734 -2.71448 -2.5
      vertex -1.10437 -2.78933 -2.5
      vertex -1.10437 -2.78933 2.5
    endloop
  endfacet
  facet normal -0.397147 -0.917755 0
    outer loop
      vertex -1.27734 -2.71448 2.5
      vertex -1.27734 -2.71448 -2.5
      vertex -1.10437 -2.78933 2.5
    endloop
  endfacet
  facet normal -0.338742 -0.940879 0
    outer loop
      vertex -1.10437 -2.78933 -2.5
      vertex -0.927051 -2.85317 -2.5
      vertex -0.927051 -2.85317 2.5
    endloop
  endfacet
  facet normal -0.338742 -0.940879 0
    outer loop
      vertex -1.10437 -2.78933 2.5
      vertex -1.10437 -2.78933 -2.5
      vertex -0.927051 -2.85317 2.5
    endloop
  endfacet
  facet normal -0.278987 -0.960295 0
    outer loop
      vertex -0.927051 -2.85317 -2.5
      vertex -0.74607 -2.90575 -2.5
      vertex -0.74607 -2.90575 2.5
    endloop
  endfacet
  facet normal -0.278987 -0.960295 0
    outer loop
      vertex -0.927051 -2.85317 2.5
      vertex -0.927051 -2.85317 -2.5
      vertex -0.74607 -2.90575 2.5
    endloop
  endfacet
  facet normal -0.218147 -0.975916 0
    outer loop
      vertex -0.74607 -2.90575 -2.5
      vertex -0.562144 -2.94686 -2.5
      vertex -0.562144 -2.94686 2.5
    endloop
  endfacet
  facet normal -0.218147 -0.975916 0
    outer loop
      vertex -0.74607 -2.90575 2.5
      vertex -0.74607 -2.90575 -2.5
      vertex -0.562144 -2.94686 2.5
    endloop
  endfacet
  facet normal -0.156433 -0.987689 0
    outer loop
      vertex -0.562144 -2.94686 -2.5
      vertex -0.376 -2.97634 -2.5
      vertex -0.376 -2.97634 2.5
    endloop
  endfacet
  facet normal -0.156433 -0.987689 0
    outer loop
      vertex -0.562144 -2.94686 2.5
      vertex -0.562144 -2.94686 -2.5
      vertex -0.376 -2.97634 2.5
    endloop
  endfacet
  facet normal -0.094108 -0.995562 0
    outer loop
      vertex -0.376 -2.97634 -2.5
      vertex -0.188372 -2.99408 -2.5
      vertex -0.188372 -2.99408 2.5
    endloop
  endfacet
  facet normal -0.094108 -0.995562 0
    outer loop
      vertex -0.376 -2.97634 2.5
      vertex -0.376 -2.97634 -2.5
      vertex -0.188372 -2.99408 2.5
    endloop
  endfacet
  facet normal -0.0314117 -0.999507 0
    outer loop
      vertex -0.188372 -2.99408 -2.5
      vertex 0 -3 -2.5
      vertex 0 -3 2.5
    endloop
  endfacet
  facet normal -0.0314117 -0.999507 0
    outer loop
      vertex -0.188372 -2.99408 2.5
      vertex -0.188372 -2.99408 -2.5
      vertex 0 -3 2.5
    endloop
  endfacet
  facet normal 0.0314117 -0.999507 0
    outer loop
      vertex 0 -3 -2.5
      vertex 0.188372 -2.99408 -2.5
      vertex 0.188372 -2.99408 2.5
    endloop
  endfacet
  facet normal 0.0314117 -0.999507 0
    outer loop
      vertex 0 -3 2.5
      vertex 0 -3 -2.5
      vertex 0.188372 -2.99408 2.5
    endloop
  endfacet
  facet normal 0.094108 -0.995562 0
    outer loop
      vertex 0.188372 -2.99408 -2.5
      vertex 0.376 -2.97634 -2.5
      vertex 0.376 -2.97634 2.5
    endloop
  endfacet
  facet normal 0.094108 -0.995562 0
    outer loop
      vertex 0.188372 -2.99408 2.5
      vertex 0.188372 -2.99408 -2.5
      vertex 0.376 -2.97634 2.5
    endloop
  endfacet
  facet normal 0.156433 -0.987689 0
    outer loop
      vertex 0.376 -2.97634 -2.5
      vertex 0.562144 -2.94686 -2.5
      vertex 0.562144 -2.94686 2.5
    endloop
  endfacet
  facet normal 0.156433 -0.987689 0
    outer loop
      vertex 0.376 -2.97634 2.5
      vertex 0.376 -2.97634 -2.5
      vertex 0.562144 -2.94686 2.5
    endloop
  endfacet
  facet normal 0.218147 -0.975916 0
    outer loop
      vertex 0.562144 -2.94686 -2.5
      vertex 0.74607 -2.90575 -2.5
      vertex 0.74607 -2.90575 2.5
    endloop
  endfacet
  facet normal 0.218147 -0.975916 0
    outer loop
      vertex 0.562144 -2.94686 2.5
      vertex 0.562144 -2.94686 -2.5
      vertex 0.74607 -2.90575 2.5
    endloop
  endfacet
  facet normal 0.278987 -0.960295 0
    outer loop
      vertex 0.74607 -2.90575 -2.5
      vertex 0.927051 -2.85317 -2.5
      vertex 0.927051 -2.85317 2.5
    endloop
  endfacet
  facet normal 0.278987 -0.960295 0
    outer loop
      vertex 0.74607 -2.90575 2.5
      vertex 0.74607 -2.90575 -2.5
      vertex 0.927051 -2.85317 2.5
    endloop
  endfacet
  facet normal 0.338742 -0.940879 0
    outer loop
      vertex 0.927051 -2.85317 -2.5
      vertex 1.10437 -2.78933 -2.5
      vertex 1.10437 -2.78933 2.5
    endloop
  endfacet
  facet normal 0.338742 -0.940879 0
    outer loop
      vertex 0.927051 -2.85317 2.5
      vertex 0.927051 -2.85317 -2.5
      vertex 1.10437 -2.78933 2.5
    endloop
  endfacet
  facet normal 0.397147 -0.917755 0
    outer loop
      vertex 1.10437 -2.78933 -2.5
      vertex 1.27734 -2.71448 -2.5
      vertex 1.27734 -2.71448 2.5
    endloop
  endfacet
  facet normal 0.397147 -0.917755 0
    outer loop
      vertex 1.10437 -2.78933 2.5
      vertex 1.10437 -2.78933 -2.5
      vertex 1.27734 -2.71448 2.5
    endloop
  endfacet
  facet normal 0.45399 -0.891007 0
    outer loop
      vertex 1.27734 -2.71448 -2.5
      vertex 1.44526 -2.62892 -2.5
      vertex 1.44526 -2.62892 2.5
    endloop
  endfacet
  facet normal 0.45399 -0.891007 0
    outer loop
      vertex 1.27734 -2.71448 2.5
      vertex 1.27734 -2.71448 -2.5
      vertex 1.44526 -2.62892 2.5
    endloop
  endfacet
  facet normal 0.509041 -0.860742 0
    outer loop
      vertex 1.44526 -2.62892 -2.5
      vertex 1.60748 -2.53298 -2.5
      vertex 1.60748 -2.53298 2.5
    endloop
  endfacet
  facet normal 0.509041 -0.860742 0
    outer loop
      vertex 1.44526 -2.62892 2.5
      vertex 1.44526 -2.62892 -2.5
      vertex 1.60748 -2.53298 2.5
    endloop
  endfacet
  facet normal 0.562083 -0.827081 0
    outer loop
      vertex 1.60748 -2.53298 -2.5
      vertex 1.76336 -2.42705 -2.5
      vertex 1.76336 -2.42705 2.5
    endloop
  endfacet
  facet normal 0.562083 -0.827081 0
    outer loop
      vertex 1.60748 -2.53298 2.5
      vertex 1.60748 -2.53298 -2.5
      vertex 1.76336 -2.42705 2.5
    endloop
  endfacet
  facet normal 0.612907 -0.790155 0
    outer loop
      vertex 1.76336 -2.42705 -2.5
      vertex 1.91227 -2.31154 -2.5
      vertex 1.91227 -2.31154 2.5
    endloop
  endfacet
  facet normal 0.612907 -0.790155 0
    outer loop
      vertex 1.76336 -2.42705 2.5
      vertex 1.76336 -2.42705 -2.5
      vertex 1.91227 -2.31154 2.5
    endloop
  endfacet
  facet normal 0.661313 -0.75011 0
    outer loop
      vertex 1.91227 -2.31154 -2.5
      vertex 2.05364 -2.18691 -2.5
      vertex 2.05364 -2.18691 2.5
    endloop
  endfacet
  facet normal 0.661313 -0.75011 0
    outer loop
      vertex 1.91227 -2.31154 2.5
      vertex 1.91227 -2.31154 -2.5
      vertex 2.05364 -2.18691 2.5
    endloop
  endfacet
  facet normal 0.707107 -0.707107 0
    outer loop
      vertex 2.05364 -2.18691 -2.5
      vertex 2.18691 -2.05364 -2.5
      vertex 2.18691 -2.05364 2.5
    endloop
  endfacet
  facet normal 0.707107 -0.707107 0
    outer loop
      vertex 2.05364 -2.18691 2.5
      vertex 2.05364 -2.18691 -2.5
      vertex 2.18691 -2.05364 2.5
    endloop
  endfacet
  facet normal 0.75011 -0.661313 0
    outer loop
      vertex 2.18691 -2.05364 -2.5
      vertex 2.31154 -1.91227 -2.5
      vertex 2.31154 -1.91227 2.5
    endloop
  endfacet
  facet normal 0.75011 -0.661313 0
    outer loop
      vertex 2.18691 -2.05364 2.5
      vertex 2.18691 -2.05364 -2.5
      vertex 2.31154 -1.91227 2.5
    endloop
  endfacet
  facet normal 0.790155 -0.612907 0
    outer loop
      vertex 2.31154 -1.91227 -2.5
      vertex 2.42705 -1.76336 -2.5
      vertex 2.42705 -1.76336 2.5
    endloop
  endfacet
  facet normal 0.790155 -0.612907 0
    outer loop
      vertex 2.31154 -1.91227 2.5
      vertex 2.31154 -1.91227 -2.5
      vertex 2.42705 -1.76336 2.5
    endloop
  endfacet
  facet normal 0.827081 -0.562083 0
    outer loop
      vertex 2.42705 -1.76336 -2.5
      vertex 2.53298 -1.60748 -2.5
      vertex 2.53298 -1.60748 2.5
    endloop
  endfacet
  facet normal 0.827081 -0.562083 0
    outer loop
      vertex 2.42705 -1.76336 2.5
      vertex 2.42705 -1.76336 -2.5
      vertex 2.53298 -1.60748 2.5
    endloop
  endfacet
  facet normal 0.860742 -0.509041 0
    outer loop
      vertex 2.53298 -1.60748 -2.5
      vertex 2.62892 -1.44526 -2.5
      vertex 2.62892 -1.44526 2.5
    endloop
  endfacet
  facet normal 0.860742 -0.509041 0
    outer loop
      vertex 2.53298 -1.60748 2.5
      vertex 2.53298 -1.60748 -2.5
      vertex 2.62892 -1.44526 2.5
    endloop
  endfacet
  facet normal 0.891007 -0.45399 0
    outer loop
      vertex 2.62892 -1.44526 -2.5
      vertex 2.71448 -1.27734 -2.5
      vertex 2.71448 -1.27734 2.5
    endloop
  endfacet
  facet normal 0.891007 -0.45399 0
    outer loop
      vertex 2.62892 -1.44526 2.5
      vertex 2.62892 -1.44526 -2.5
      vertex 2.71448 -1.27734 2.5
    endloop
  endfacet
  facet normal 0.917755 -0.397147 0
    outer loop
      vertex 2.71448 -1.27734 -2.5
      vertex 2.78933 -1.10437 -2.5
      vertex 2.78933 -1.10437 2.5
    endloop
  endfacet
  facet normal 0.917755 -0.397147 0
    outer loop
      vertex 2.71448 -1.27734 2.5
      vertex 2.71448 -1.27734 -2.5
      vertex 2.78933 -1.10437 2.5
    endloop
  endfacet
  facet normal 0.940879 -0.338742 0
    outer loop
      vertex 2.78933 -1.10437 -2.5
      vertex 2.85317 -0.927051 -2.5
      vertex 2.85317 -0.927051 2.5
    endloop
  endfacet
  facet normal 0.940879 -0.338742 0
    outer loop
      vertex 2.78933 -1.10437 2.5
      vertex 2.78933 -1.10437 -2.5
      vertex 2.85317 -0.927051 2.5
    endloop
  endfacet
  facet normal 0.960295 -0.278987 0
    outer loop
      vertex 2.85317 -0.927051 -2.5
      vertex 2.90575 -0.74607 -2.5
      vertex 2.90575 -0.74607 2.5
    endloop
  endfacet
  facet normal 0.960295 -0.278987 0
    outer loop
      vertex 2.85317 -0.927051 2.5
      vertex 2.85317 -0.927051 -2.5
      vertex 2.90575 -0.74607 2.5
    endloop
  endfacet
  facet normal 0.975916 -0.218147 0
    outer loop
      vertex 2.90575 -0.74607 -2.5
      vertex 2.94686 -0.562144 -2.5
      vertex 2.94686 -0.562144 2.5
    endloop
  endfacet
  facet normal 0.975916 -0.218147 0
    outer loop
      vertex 2.90575 -0.74607 2.5
      vertex 2.90575 -0.74607 -2.5
      vertex 2.94686 -0.562144 2.5
    endloop
  endfacet
  facet normal 0.987689 -0.156433 0
    outer loop
      vertex 2.94686 -0.562144 -2.5
      vertex 2.97634 -0.376 -2.5
      vertex 2.97634 -0.376 2.5
    endloop
  endfacet
  facet normal 0.987689 -0.156433 0
    outer loop
      vertex 2.94686 -0.562144 2.5
      vertex 2.94686 -0.562144 -2.5
      vertex 2.97634 -0.376 2.5
    endloop
  endfacet
  facet normal 0.995562 -0.094108 0
    outer loop
      vertex 2.97634 -0.376 -2.5
      vertex 2.99408 -0.188372 -2.5
      vertex 2.99408 -0.188372 2.5
    endloop
  endfacet
  facet normal 0.995562 -0.094108 0
    outer loop
      vertex 2.97634 -0.376 2.5
      vertex 2.97634 -0.376 -2.5
      vertex 2.99408 -0.188372 2.5
    endloop
  endfacet
  facet normal 0.999507 -0.0314117 0
    outer loop
      vertex 2.99408 -0.188372 -2.5
      vertex 3 0 -2.5
      vertex 3 0 2.5
    endloop
  endfacet
  facet normal 0.999507 -0.0314117 0
    outer loop
      vertex 2.99408 -0.188372 2.5
      vertex 2.99408 -0.188372 -2.5
      vertex 3 0 2.5
    endloop
  endfacet
  facet normal 0.987689 0.156433 0
    outer loop
      vertex 2.94686 0.562144 -2.5
      vertex 2.94686 0.562144 2.5
      vertex 2.97634 0.376 2.5
    endloop
  endfacet
  facet normal 0.987689 0.156433 0
    outer loop
      vertex 2.97634 0.376 -2.5
      vertex 2.94686 0.562144 -2.5
      vertex 2.97634 0.376 2.5
    endloop
  endfacet
  facet normal 0.975916 0.218147 0
    outer loop
      vertex 2.90575 0.74607 -2.5
      vertex 2.90575 0.74607 2.5
      vertex 2.94686 0.562144 2.5
    endloop
  endfacet
  facet normal 0.975916 0.218147 0
    outer loop
      vertex 2.94686 0.562144 -2.5
      vertex 2.90575 0.74607 -2.5
      vertex 2.94686 0.562144 2.5
    endloop
  endfacet
  facet normal 0.960295 0.278987 0
    outer loop
      vertex 2.85317 0.927051 -2.5
      vertex 2.85317 0.927051 2.5
      vertex 2.90575 0.74607 2.5
    endloop
  endfacet
  facet normal 0.960295 0.278987 0
    outer loop
      vertex 2.90575 0.74607 -2.5
      vertex 2.85317 0.927051 -2.5
      vertex 2.90575 0.74607 2.5
    endloop
  endfacet
  facet normal 0.940879 0.338742 0
    outer loop
      vertex 2.78933 1.10437 -2.5
      vertex 2.78933 1.10437 2.5
      vertex 2.85317 0.927051 2.5
    endloop
  endfacet
  facet normal 0.940879 0.338742 0
    outer loop
      vertex 2.85317 0.927051 -2.5
      vertex 2.78933 1.10437 -2.5
      vertex 2.85317 0.927051 2.5
    endloop
  endfacet
  facet normal 0.917755 0.397147 0
    outer loop
      vertex 2.71448 1.27734 -2.5
      vertex 2.71448 1.27734 2.5
      vertex 2.78933 1.10437 2.5
    endloop
  endfacet
  facet normal 0.917755 0.397147 0
    outer loop
      vertex 2.78933 1.10437 -2.5
      vertex 2.71448 1.27734 -2.5
      vertex 2.78933 1.10437 2.5
    endloop
  endfacet
  facet normal 0.891007 0.45399 0
    outer loop
      vertex 2.62892 1.44526 -2.5
      vertex 2.62892 1.44526 2.5
      vertex 2.71448 1.27734 2.5
    endloop
  endfacet
  facet normal 0.891007 0.45399 0
    outer loop
      vertex 2.71448 1.27734 -2.5
      vertex 2.62892 1.44526 -2.5
      vertex 2.71448 1.27734 2.5
    endloop
  endfacet
  facet normal 0.860742 0.509041 0
    outer loop
      vertex 2.53298 1.60748 -2.5
      vertex 2.53298 1.60748 2.5
      vertex 2.62892 1.44526 2.5
    endloop
  endfacet
  facet normal 0.860742 0.509041 0
    outer loop
      vertex 2.62892 1.44526 -2.5
      vertex 2.53298 1.60748 -2.5
      vertex 2.62892 1.44526 2.5
    endloop
  endfacet
  facet normal 0.827081 0.562083 0
    outer loop
      vertex 2.42705 1.76336 -2.5
      vertex 2.42705 1.76336 2.5
      vertex 2.53298 1.60748 2.5
    endloop
  endfacet
  facet normal 0.827081 0.562083 0
    outer loop
      vertex 2.53298 1.60748 -2.5
      vertex 2.42705 1.76336 -2.5
      vertex 2.53298 1.60748 2.5
    endloop
  endfacet
  facet normal 0.790155 0.612907 0
    outer loop
      vertex 2.31154 1.91227 -2.5
      vertex 2.31154 1.91227 2.5
      vertex 2.42705 1.76336 2.5
    endloop
  endfacet
  facet normal 0.790155 0.612907 0
    outer loop
      vertex 2.42705 1.76336 -2.5
      vertex 2.31154 1.91227 -2.5
      vertex 2.42705 1.76336 2.5
    endloop
  endfacet
  facet normal 0.75011 0.661313 0
    outer loop
      vertex 2.18691 2.05364 -2.5
      vertex 2.18691 2.05364 2.5
      vertex 2.31154 1.91227 2.5
    endloop
  endfacet
  facet normal 0.75011 0.661313 0
    outer loop
      vertex 2.31154 1.91227 -2.5
      vertex 2.18691 2.05364 -2.5
      vertex 2.31154 1.91227 2.5
    endloop
  endfacet
  facet normal 0.707107 0.707107 0
    outer loop
      vertex 2.05364 2.18691 2.5
      vertex 2.18691 2.05364 2.5
      vertex 2.05364 2.18691 -2.5
    endloop
  endfacet
  facet normal 0.707107 0.707107 0
    outer loop
      vertex 2.05364 2.18691 -2.5
      vertex 2.18691 2.05364 2.5
      vertex 2.18691 2.05364 -2.5
    endloop
  endfacet
  facet normal 0.661313 0.75011 0
    outer loop
      vertex 1.91227 2.31154 2.5
      vertex 2.05364 2.18691 2.5
      vertex 1.91227 2.31154 -2.5
    endloop
  endfacet
  facet normal 0.661313 0.75011 0
    outer loop
      vertex 1.91227 2.31154 -2.5
      vertex 2.05364 2.18691 2.5
      vertex 2.05364 2.18691 -2.5
    endloop
  endfacet
  facet normal 0.612907 0.790155 0
    outer loop
      vertex 1.76336 2.42705 2.5
      vertex 1.91227 2.31154 2.5
      vertex 1.76336 2.42705 -2.5
    endloop
  endfacet
  facet normal 0.612907 0.790155 0
    outer loop
      vertex 1.76336 2.42705 -2.5
      vertex 1.91227 2.31154 2.5
      vertex 1.91227 2.31154 -2.5
    endloop
  endfacet
  facet normal 0.562083 0.827081 0
    outer loop
      vertex 1.60748 2.53298 2.5
      vertex 1.76336 2.42705 2.5
      vertex 1.60748 2.53298 -2.5
    endloop
  endfacet
  facet normal 0.562083 0.827081 0
    outer loop
      vertex 1.60748 2.53298 -2.5
      vertex 1.76336 2.42705 2.5
      vertex 1.76336 2.42705 -2.5
    endloop
  endfacet
  facet normal 0.509041 0.860742 0
    outer loop
      vertex 1.44526 2.62892 2.5
      vertex 1.60748 2.53298 2.5
      vertex 1.44526 2.62892 -2.5
    endloop
  endfacet
  facet normal 0.509041 0.860742 0
    outer loop
      vertex 1.44526 2.62892 -2.5
      vertex 1.60748 2.53298 2.5
      vertex 1.60748 2.53298 -2.5
    endloop
  endfacet
  facet normal 0.45399 0.891007 0
    outer loop
      vertex 1.27734 2.71448 2.5
      vertex 1.44526 2.62892 2.5
      vertex 1.27734 2.71448 -2.5
    endloop
  endfacet
  facet normal 0.45399 0.891007 0
    outer loop
      vertex 1.27734 2.71448 -2.5
      vertex 1.44526 2.62892 2.5
      vertex 1.44526 2.62892 -2.5
    endloop
  endfacet
  facet normal 0.397147 0.917755 0
    outer loop
      vertex 1.10437 2.78933 2.5
      vertex 1.27734 2.71448 2.5
      vertex 1.10437 2.78933 -2.5
    endloop
  endfacet
  facet normal 0.397147 0.917755 0
    outer loop
      vertex 1.10437 2.78933 -2.5
      vertex 1.27734 2.71448 2.5
      vertex 1.27734 2.71448 -2.5
    endloop
  endfacet
  facet normal 0.338742 0.940879 0
    outer loop
      vertex 0.927051 2.85317 2.5
      vertex 1.10437 2.78933 2.5
      vertex 0.927051 2.85317 -2.5
    endloop
  endfacet
  facet normal 0.338742 0.940879 0
    outer loop
      vertex 0.927051 2.85317 -2.5
      vertex 1.10437 2.78933 2.5
      vertex 1.10437 2.78933 -2.5
    endloop
  endfacet
  facet normal 0.278987 0.960295 0
    outer loop
      vertex 0.74607 2.90575 2.5
      vertex 0.927051 2.85317 2.5
      vertex 0.74607 2.90575 -2.5
    endloop
  endfacet
  facet normal 0.278987 0.960295 0
    outer loop
      vertex 0.74607 2.90575 -2.5
      vertex 0.927051 2.85317 2.5
      vertex 0.927051 2.85317 -2.5
    endloop
  endfacet
  facet normal 0.218147 0.975916 0
    outer loop
      vertex 0.562144 2.94686 2.5
      vertex 0.74607 2.90575 2.5
      vertex 0.562144 2.94686 -2.5
    endloop
  endfacet
  facet normal 0.218147 0.975916 0
    outer loop
      vertex 0.562144 2.94686 -2.5
      vertex 0.74607 2.90575 2.5
      vertex 0.74607 2.90575 -2.5
    endloop
  endfacet
  facet normal 0.156433 0.987689 0
    outer loop
      vertex 0.376 2.97634 2.5
      vertex 0.562144 2.94686 2.5
      vertex 0.376 2.97634 -2.5
    endloop
  endfacet
  facet normal 0.156433 0.987689 0
    outer loop
      vertex 0.376 2.97634 -2.5
      vertex 0.562144 2.94686 2.5
      vertex 0.562144 2.94686 -2.5
    endloop
  endfacet
  facet normal 0.094108 0.995562 0
    outer loop
      vertex 0.188372 2.99408 2.5
      vertex 0.376 2.97634 2.5
      vertex 0.188372 2.99408 -2.5
    endloop
  endfacet
  facet normal 0.094108 0.995562 0
    outer loop
      vertex 0.188372 2.99408 -2.5
      vertex 0.376 2.97634 2.5
      vertex 0.376 2.97634 -2.5
    endloop
  endfacet
  facet normal 0.0314117 0.999507 0
    outer loop
      vertex 0 3 2.5
      vertex 0.188372 2.99408 2.5
      vertex 0 3 -2.5
    endloop
  endfacet
  facet normal 0.0314117 0.999507 0
    outer loop
      vertex 0 3 -2.5
      vertex 0.188372 2.99408 2.5
      vertex 0.188372 2.99408 -2.5
    endloop
  endfacet
  facet normal -0.0314117 0.999507 0
    outer loop
      vertex -0.188372 2.99408 2.5
      vertex 0 3 2.5
      vertex -0.188372 2.99408 -2.5
    endloop
  endfacet
  facet normal -0.0314117 0.999507 0
    outer loop
      vertex -0.188372 2.99408 -2.5
      vertex 0 3 2.5
      vertex 0 3 -2.5
    endloop
  endfacet
  facet normal -0.094108 0.995562 0
    outer loop
      vertex -0.376 2.97634 2.5
      vertex -0.188372 2.99408 2.5
      vertex -0.376 2.97634 -2.5
    endloop
  endfacet
  facet normal -0.094108 0.995562 0
    outer loop
      vertex -0.376 2.97634 -2.5
      vertex -0.188372 2.99408 2.5
      vertex -0.188372 2.99408 -2.5
    endloop
  endfacet
  facet normal -0.156433 0.987689 0
    outer loop
      vertex -0.562144 2.94686 2.5
      vertex -0.376 2.97634 2.5
      vertex -0.562144 2.94686 -2.5
    endloop
  endfacet
  facet normal -0.156433 0.987689 0
    outer loop
      vertex -0.562144 2.94686 -2.5
      vertex -0.376 2.97634 2.5
      vertex -0.376 2.97634 -2.5
    endloop
  endfacet
  facet normal -0.218147 0.975916 0
    outer loop
      vertex -0.74607 2.90575 2.5
      vertex -0.562144 2.94686 2.5
      vertex -0.74607 2.90575 -2.5
    endloop
  endfacet
  facet normal -0.218147 0.975916 0
    outer loop
      vertex -0.74607 2.90575 -2.5
      vertex -0.562144 2.94686 2.5
      vertex -0.562144 2.94686 -2.5
    endloop
  endfacet
  facet normal -0.278987 0.960295 0
    outer loop
      vertex -0.927051 2.85317 2.5
      vertex -0.74607 2.90575 2.5
      vertex -0.927051 2.85317 -2.5
    endloop
  endfacet
  facet normal -0.278987 0.960295 0
    outer loop
      vertex -0.927051 2.85317 -2.5
      vertex -0.74607 2.90575 2.5
      vertex -0.74607 2.90575 -2.5
    endloop
  endfacet
  facet normal -0.338742 0.940879 0
    outer loop
      vertex -1.10437 2.78933 2.5
      vertex -0.927051 2.85317 2.5
      vertex -1.10437 2.78933 -2.5
    endloop
  endfacet
  facet normal -0.338742 0.940879 0
    outer loop
      vertex -1.10437 2.78933 -2.5
      vertex -0.927051 2.85317 2.5
      vertex -0.927051 2.85317 -2.5
    endloop
  endfacet
  facet normal -0.397147 0.917755 0
    outer loop
      vertex -1.27734 2.71448 2.5
      vertex -1.10437 2.78933 2.5
      vertex -1.27734 2.71448 -2.5
    endloop
  endfacet
  facet normal -0.397147 0.917755 0
    outer loop
      vertex -1.27734 2.71448 -2.5
      vertex -1.10437 2.78933 2.5
      vertex -1.10437 2.78933 -2.5
    endloop
  endfacet
  facet normal -0.45399 0.891007 0
    outer loop
      vertex -1.44526 2.62892 2.5
      vertex -1.27734 2.71448 2.5
      vertex -1.44526 2.62892 -2.5
    endloop
  endfacet
  facet normal -0.45399 0.891007 0
    outer loop
      vertex -1.44526 2.62892 -2.5
      vertex -1.27734 2.71448 2.5
      vertex -1.27734 2.71448 -2.5
    endloop
  endfacet
  facet normal -0.509041 0.860742 0
    outer loop
      vertex -1.60748 2.53298 2.5
      vertex -1.44526 2.62892 2.5
      vertex -1.60748 2.53298 -2.5
    endloop
  endfacet
  facet normal -0.509041 0.860742 0
    outer loop
      vertex -1.60748 2.53298 -2.5
      vertex -1.44526 2.62892 2.5
      vertex -1.44526 2.62892 -2.5
    endloop
  endfacet
  facet normal -0.562083 0.827081 0
    outer loop
      vertex -1.76336 2.42705 2.5
      vertex -1.60748 2.53298 2.5
      vertex -1.76336 2.42705 -2.5
    endloop
  endfacet
  facet normal -0.562083 0.827081 0
    outer loop
      vertex -1.76336 2.42705 -2.5
      vertex -1.60748 2.53298 2.5
      vertex -1.60748 2.53298 -2.5
    endloop
  endfacet
  facet normal -0.612907 0.790155 0
    outer loop
      vertex -1.91227 2.31154 2.5
      vertex -1.76336 2.42705 2.5
      vertex -1.91227 2.31154 -2.5
    endloop
  endfacet
  facet normal -0.612907 0.790155 0
    outer loop
      vertex -1.91227 2.31154 -2.5
      vertex -1.76336 2.42705 2.5
      vertex -1.76336 2.42705 -2.5
    endloop
  endfacet
  facet normal -0.661313 0.75011 0
    outer loop
      vertex -2.05364 2.18691 2.5
      vertex -1.91227 2.31154 2.5
      vertex -2.05364 2.18691 -2.5
    endloop
  endfacet
  facet normal -0.661313 0.75011 0
    outer loop
      vertex -2.05364 2.18691 -2.5
      vertex -1.91227 2.31154 2.5
      vertex -1.91227 2.31154 -2.5
    endloop
  endfacet
  facet normal -0.707107 0.707107 0
    outer loop
      vertex -2.18691 2.05364 2.5
      vertex -2.05364 2.18691 2.5
      vertex -2.18691 2.05364 -2.5
    endloop
  endfacet
  facet normal -0.707107 0.707107 0
    outer loop
      vertex -2.18691 2.05364 -2.5
      vertex -2.05364 2.18691 2.5
      vertex -2.05364 2.18691 -2.5
    endloop
  endfacet
  facet normal -0.75011 0.661313 0
    outer loop
      vertex -2.31154 1.91227 2.5
      vertex -2.18691 2.05364 2.5
      vertex -2.31154 1.91227 -2.5
    endloop
  endfacet
  facet normal -0.75011 0.661313 0
    outer loop
      vertex -2.31154 1.91227 -2.5
      vertex -2.18691 2.05364 2.5
      vertex -2.18691 2.05364 -2.5
    endloop
  endfacet
  facet normal -0.790155 0.612907 0
    outer loop
      vertex -2.42705 1.76336 2.5
      vertex -2.31154 1.91227 2.5
      vertex -2.42705 1.76336 -2.5
    endloop
  endfacet
  facet normal -0.790155 0.612907 0
    outer loop
      vertex -2.42705 1.76336 -2.5
      vertex -2.31154 1.91227 2.5
      vertex -2.31154 1.91227 -2.5
    endloop
  endfacet
  facet normal -0.827081 0.562083 0
    outer loop
      vertex -2.53298 1.60748 2.5
      vertex -2.42705 1.76336 2.5
      vertex -2.53298 1.60748 -2.5
    endloop
  endfacet
  facet normal -0.827081 0.562083 0
    outer loop
      vertex -2.53298 1.60748 -2.5
      vertex -2.42705 1.76336 2.5
      vertex -2.42705 1.76336 -2.5
    endloop
  endfacet
  facet normal -0.860742 0.509041 0
    outer loop
      vertex -2.62892 1.44526 2.5
      vertex -2.53298 1.60748 2.5
      vertex -2.62892 1.44526 -2.5
    endloop
  endfacet
  facet normal -0.860742 0.509041 0
    outer loop
      vertex -2.62892 1.44526 -2.5
      vertex -2.53298 1.60748 2.5
      vertex -2.53298 1.60748 -2.5
    endloop
  endfacet
  facet normal -0.891007 0.45399 0
    outer loop
      vertex -2.71448 1.27734 2.5
      vertex -2.62892 1.44526 2.5
      vertex -2.71448 1.27734 -2.5
    endloop
  endfacet
  facet normal -0.891007 0.45399 0
    outer loop
      vertex -2.71448 1.27734 -2.5
      vertex -2.62892 1.44526 2.5
      vertex -2.62892 1.44526 -2.5
    endloop
  endfacet
  facet normal -0.917755 0.397147 0
    outer loop
      vertex -2.78933 1.10437 2.5
      vertex -2.71448 1.27734 2.5
      vertex -2.78933 1.10437 -2.5
    endloop
  endfacet
  facet normal -0.917755 0.397147 0
    outer loop
      vertex -2.78933 1.10437 -2.5
      vertex -2.71448 1.27734 2.5
      vertex -2.71448 1.27734 -2.5
    endloop
  endfacet
  facet normal -0.940879 0.338742 0
    outer loop
      vertex -2.85317 0.927051 2.5
      vertex -2.78933 1.10437 2.5
      vertex -2.85317 0.927051 -2.5
    endloop
  endfacet
  facet normal -0.940879 0.338742 0
    outer loop
      vertex -2.85317 0.927051 -2.5
      vertex -2.78933 1.10437 2.5
      vertex -2.78933 1.10437 -2.5
    endloop
  endfacet
  facet normal -0.960295 0.278987 0
    outer loop
      vertex -2.90575 0.74607 2.5
      vertex -2.85317 0.927051 2.5
      vertex -2.90575 0.74607 -2.5
    endloop
  endfacet
  facet normal -0.960295 0.278987 0
    outer loop
      vertex -2.90575 0.74607 -2.5
      vertex -2.85317 0.927051 2.5
      vertex -2.85317 0.927051 -2.5
    endloop
  endfacet
  facet normal -0.975916 0.218147 0
    outer loop
      vertex -2.94686 0.562144 2.5
      vertex -2.90575 0.74607 2.5
      vertex -2.94686 0.562144 -2.5
    endloop
  endfacet
  facet normal -0.975916 0.218147 0
    outer loop
      vertex -2.94686 0.562144 -2.5
      vertex -2.90575 0.74607 2.5
      vertex -2.90575 0.74607 -2.5
    endloop
  endfacet
  facet normal -0.987689 0.156433 0
    outer loop
      vertex -2.97634 0.376 2.5
      vertex -2.94686 0.562144 2.5
      vertex -2.97634 0.376 -2.5
    endloop
  endfacet
  facet normal -0.987689 0.156433 0
    outer loop
      vertex -2.97634 0.376 -2.5
      vertex -2.94686 0.562144 2.5
      vertex -2.94686 0.562144 -2.5
    endloop
  endfacet
  facet normal -0.995562 0.094108 0
    outer loop
      vertex -2.99408 0.188372 2.5
      vertex -2.97634 0.376 2.5
      vertex -2.99408 0.188372 -2.5
    endloop
  endfacet
  facet normal -0.995562 0.094108 0
    outer loop
      vertex -2.99408 0.188372 -2.5
      vertex -2.97634 0.376 2.5
      vertex -2.97634 0.376 -2.5
    endloop
  endfacet
  facet normal 0 0 1
    outer loop
      vertex -3 0 2.5
      vertex -2.99408 -0.188372 2.5
      vertex -2.97634 -0.376 2.5
    endloop
  endfacet
  facet normal 0 0 1
    outer loop
      vertex -2.90575 -0.74607 2.5
      vertex -3 0 2.5
      vertex -2.94686 -0.562144 2.5
    endloop
  endfacet
  facet normal 0 0 1
    outer loop
      vertex -2.94686 -0.562144 2.5
      vertex -3 0 2.5
      vertex -2.97634 -0.376 2.5
    endloop
  endfacet
  facet normal 0 0 1
    outer loop
      vertex -2.85317 -0.927051 2.5
      vertex -3 0 2.5
      vertex -2.90575 -0.74607 2.5
    endloop
  endfacet
  facet normal 0 0 1
    outer loop
      vertex -2.78933 -1.10437 2.5
      vertex -3 0 2.5
      vertex -2.85317 -0.927051 2.5
    endloop
  endfacet
  facet normal 0 0 1
    outer loop
      vertex -2.71448 -1.27734 2.5
      vertex -3 0 2.5
      vertex -2.78933 -1.10437 2.5
    endloop
  endfacet
  facet normal 0 0 1
    outer loop
      vertex -2.62892 -1.44526 2.5
      vertex -3 0 2.5
      vertex -2.71448 -1.27734 2.5
    endloop
  endfacet
  facet normal 0 0 1
    outer loop
      vertex -2.53298 -1.60748 2.5
      vertex -3 0 2.5
      vertex -2.62892 -1.44526 2.5
    endloop
  endfacet
  facet normal 0 0 1
    outer loop
      vertex -2.42705 -1.76336 2.5
      vertex -3 0 2.5
      vertex -2.53298 -1.60748 2.5
    endloop
  endfacet
  facet normal 0 0 1
    outer loop
      vertex -2.31154 -1.91227 2.5
      vertex -3 0 2.5
      vertex -2.42705 -1.76336 2.5
    endloop
  endfacet
  facet normal 0 0 1
    outer loop
      vertex -2.18691 -2.05364 2.5
      vertex -3 0 2.5
      vertex -2.31154 -1.91227 2.5
    endloop
  endfacet
  facet normal 0 0 1
    outer loop
      vertex -2.05364 -2.18691 2.5
      vertex -3 0 2.5
      vertex -2.18691 -2.05364 2.5
    endloop
  endfacet
  facet normal 0 0 1
    outer loop
      vertex -1.91227 -2.31154 2.5
      vertex -3 0 2.5
      vertex -2.05364 -2.18691 2.5
    endloop
  endfacet
  facet normal 0 0 1
    outer loop
      vertex -1.76336 -2.42705 2.5
      vertex -3 0 2.5
      vertex -1.91227 -2.31154 2.5
    endloop
  endfacet
  facet normal 0 0 1
    outer loop
      vertex -1.60748 -2.53298 2.5
      vertex -3 0 2.5
      vertex -1.76336 -2.42705 2.5
    endloop
  endfacet
  facet normal 0 0 1
    outer loop
      vertex -1.44526 -2.62892 2.5
      vertex -3 0 2.5
      vertex -1.60748 -2.53298 2.5
    endloop
  endfacet
  facet normal 0 0 1
    outer loop
      vertex -1.27734 -2.71448 2.5
      vertex -3 0 2.5
      vertex -1.44526 -2.62892 2.5
    endloop
  endfacet
  facet normal 0 0 1
    outer loop
      vertex -1.10437 -2.78933 2.5
      vertex -3 0 2.5
      vertex -1.27734 -2.71448 2.5
    endloop
  endfacet
  facet normal 0 0 1
    outer loop
      vertex -0.927051 -2.85317 2.5
      vertex -3 0 2.5
      vertex -1.10437 -2.78933 2.5
    endloop
  endfacet
  facet normal 0 0 1
    outer loop
      vertex -0.74607 -2.90575 2.5
      vertex -3 0 2.5
      vertex -0.927051 -2.85317 2.5
    endloop
  endfacet
  facet normal 0 0 1
    outer loop
      vertex -0.562144 -2.94686 2.5
      vertex -3 0 2.5
      vertex -0.74607 -2.90575 2.5
    endloop
  endfacet
  facet normal 0 0 1
    outer loop
      vertex -0.376 -2.97634 2.5
      vertex -3 0 2.5
      vertex -0.562144 -2.94686 2.5
    endloop
  endfacet
  facet normal 0 0 1
    outer loop
      vertex -0.188372 -2.99408 2.5
      vertex -3 0 2.5
      vertex -0.376 -2.97634 2.5
    endloop
  endfacet
  facet normal 0 0 1
    outer loop
      vertex 0 -3 2.5
      vertex -3 0 2.5
      vertex -0.188372 -2.99408 2.5
    endloop
  endfacet
  facet normal 0 0 1
    outer loop
      vertex 0.188372 -2.99408 2.5
      vertex -3 0 2.5
      vertex 0 -3 2.5
    endloop
  endfacet
  facet normal 0 0 1
    outer loop
      vertex 0.376 -2.97634 2.5
      vertex -3 0 2.5
      vertex 0.188372 -2.99408 2.5
    endloop
  endfacet
  facet normal 0 0 1
    outer loop
      vertex 0.562144 -2.94686 2.5
      vertex -3 0 2.5
      vertex 0.376 -2.97634 2.5
    endloop
  endfacet
  facet normal 0 0 1
    outer loop
      vertex 0.74607 -2.90575 2.5
      vertex -3 0 2.5
      vertex 0.562144 -2.94686 2.5
    endloop
  endfacet
  facet normal 0 0 1
    outer loop
      vertex 0.927051 -2.85317 2.5
      vertex -3 0 2.5
      vertex 0.74607 -2.90575 2.5
    endloop
  endfacet
  facet normal 0 0 1
    outer loop
      vertex 1.10437 -2.78933 2.5
      vertex -3 0 2.5
      vertex 0.927051 -2.85317 2.5
    endloop
  endfacet
  facet normal 0 0 1
    outer loop
      vertex 1.27734 -2.71448 2.5
      vertex -3 0 2.5
      vertex 1.10437 -2.78933 2.5
    endloop
  endfacet
  facet normal 0 0 1
    outer loop
      vertex 1.44526 -2.62892 2.5
      vertex -3 0 2.5
      vertex 1.27734 -2.71448 2.5
    endloop
  endfacet
  facet normal 0 0 1
    outer loop
      vertex 1.60748 -2.53298 2.5
      vertex -3 0 2.5
      vertex 1.44526 -2.62892 2.5
    endloop
  endfacet
  facet normal 0 0 1
    outer loop
      vertex 1.76336 -2.42705 2.5
      vertex -3 0 2.5
      vertex 1.60748 -2.53298 2.5
    endloop
  endfacet
  facet normal 0 0 1
    outer loop
      vertex 1.91227 -2.31154 2.5
      vertex -3 0 2.5
      vertex 1.76336 -2.42705 2.5
    endloop
  endfacet
  facet normal 0 0 1
    outer loop
      vertex 2.05364 -2.18691 2.5
      vertex -3 0 2.5
      vertex 1.91227 -2.31154 2.5
    endloop
  endfacet
  facet normal 0 0 1
    outer loop
      vertex 2.18691 -2.05364 2.5
      vertex -3 0 2.5
      vertex 2.05364 -2.18691 2.5
    endloop
  endfacet
  facet normal 0 0 1
    outer loop
      vertex 2.31154 -1.91227 2.5
      vertex -3 0 2.5
      vertex 2.18691 -2.05364 2.5
    endloop
  endfacet
  facet normal 0 0 1
    outer loop
      vertex 2.42705 -1.76336 2.5
      vertex -3 0 2.5
      vertex 2.31154 -1.91227 2.5
    endloop
  endfacet
  facet normal 0 0 1
    outer loop
      vertex 2.53298 -1.60748 2.5
      vertex -3 0 2.5
      vertex 2.42705 -1.76336 2.5
    endloop
  endfacet
  facet normal 0 0 1
    outer loop
      vertex 2.62892 -1.44526 2.5
      vertex -3 0 2.5
      vertex 2.53298 -1.60748 2.5
    endloop
  endfacet
  facet normal 0 0 1
    outer loop
      vertex 2.71448 -1.27734 2.5
      vertex -3 0 2.5
      vertex 2.62892 -1.44526 2.5
    endloop
  endfacet
  facet normal 0 0 1
    outer loop
      vertex 2.78933 -1.10437 2.5
      vertex -3 0 2.5
      vertex 2.71448 -1.27734 2.5
    endloop
  endfacet
  facet normal 0 0 1
    outer loop
      vertex 2.85317 -0.927051 2.5
      vertex -3 0 2.5
      vertex 2.78933 -1.10437 2.5
    endloop
  endfacet
  facet normal 0 0 1
    outer loop
      vertex 2.90575 -0.74607 2.5
      vertex -3 0 2.5
      vertex 2.85317 -0.927051 2.5
    endloop
  endfacet
  facet normal 0 0 1
    outer loop
      vertex 2.94686 -0.562144 2.5
      vertex -3 0 2.5
      vertex 2.90575 -0.74607 2.5
    endloop
  endfacet
  facet normal 0 0 1
    outer loop
      vertex 2.97634 -0.376 2.5
      vertex -3 0 2.5
      vertex 2.94686 -0.562144 2.5
    endloop
  endfacet
  facet normal 0 0 1
    outer loop
      vertex 2.99408 -0.188372 2.5
      vertex -3 0 2.5
      vertex 2.97634 -0.376 2.5
    endloop
  endfacet
  facet normal 0 0 1
    outer loop
      vertex 3 0 2.5
      vertex -3 0 2.5
      vertex 2.99408 -0.188372 2.5
    endloop
  endfacet
  facet normal 0 0 1
    outer loop
      vertex 2.99408 0.188372 2.5
      vertex -3 0 2.5
      vertex 3 0 2.5
    endloop
  endfacet
  facet normal 0 0 1
    outer loop
      vertex 2.97634 0.376 2.5
      vertex -3 0 2.5
      vertex 2.99408 0.188372 2.5
    endloop
  endfacet
  facet normal 0 0 1
    outer loop
      vertex 2.94686 0.562144 2.5
      vertex -3 0 2.5
      vertex 2.97634 0.376 2.5
    endloop
  endfacet
  facet normal 0 0 1
    outer loop
      vertex 2.90575 0.74607 2.5
      vertex -3 0 2.5
      vertex 2.94686 0.562144 2.5
    endloop
  endfacet
  facet normal 0 0 1
    outer loop
      vertex 2.85317 0.927051 2.5
      vertex -3 0 2.5
      vertex 2.90575 0.74607 2.5
    endloop
  endfacet
  facet normal 0 0 1
    outer loop
      vertex 2.78933 1.10437 2.5
      vertex -3 0 2.5
      vertex 2.85317 0.927051 2.5
    endloop
  endfacet
  facet normal 0 0 1
    outer loop
      vertex 2.71448 1.27734 2.5
      vertex -3 0 2.5
      vertex 2.78933 1.10437 2.5
    endloop
  endfacet
  facet normal 0 0 1
    outer loop
      vertex 2.62892 1.44526 2.5
      vertex -3 0 2.5
      vertex 2.71448 1.27734 2.5
    endloop
  endfacet
  facet normal 0 0 1
    outer loop
      vertex 2.53298 1.60748 2.5
      vertex -3 0 2.5
      vertex 2.62892 1.44526 2.5
    endloop
  endfacet
  facet normal 0 0 1
    outer loop
      vertex 2.42705 1.76336 2.5
      vertex -3 0 2.5
      vertex 2.53298 1.60748 2.5
    endloop
  endfacet
  facet normal 0 0 1
    outer loop
      vertex 2.31154 1.91227 2.5
      vertex -3 0 2.5
      vertex 2.42705 1.76336 2.5
    endloop
  endfacet
  facet normal 0 0 1
    outer loop
      vertex 2.18691 2.05364 2.5
      vertex -3 0 2.5
      vertex 2.31154 1.91227 2.5
    endloop
  endfacet
  facet normal 0 0 1
    outer loop
      vertex 2.05364 2.18691 2.5
      vertex -3 0 2.5
      vertex 2.18691 2.05364 2.5
    endloop
  endfacet
  facet normal 0 0 1
    outer loop
      vertex 1.91227 2.31154 2.5
      vertex -3 0 2.5
      vertex 2.05364 2.18691 2.5
    endloop
  endfacet
  facet normal 0 0 1
    outer loop
      vertex 1.76336 2.42705 2.5
      vertex -3 0 2.5
      vertex 1.91227 2.31154 2.5
    endloop
  endfacet
  facet normal 0 0 1
    outer loop
      vertex 1.60748 2.53298 2.5
      vertex -3 0 2.5
      vertex 1.76336 2.42705 2.5
    endloop
  endfacet
  facet normal 0 0 1
    outer loop
      vertex 1.44526 2.62892 2.5
      vertex -3 0 2.5
      vertex 1.60748 2.53298 2.5
    endloop
  endfacet
  facet normal 0 0 1
    outer loop
      vertex 1.27734 2.71448 2.5
      vertex -3 0 2.5
      vertex 1.44526 2.62892 2.5
    endloop
  endfacet
  facet normal 0 0 1
    outer loop
      vertex 1.10437 2.78933 2.5
      vertex -3 0 2.5
      vertex 1.27734 2.71448 2.5
    endloop
  endfacet
  facet normal 0 0 1
    outer loop
      vertex 0.927051 2.85317 2.5
      vertex -3 0 2.5
      vertex 1.10437 2.78933 2.5
    endloop
  endfacet
  facet normal 0 0 1
    outer loop
      vertex 0.74607 2.90575 2.5
      vertex -3 0 2.5
      vertex 0.927051 2.85317 2.5
    endloop
  endfacet
  facet normal 0 0 1
    outer loop
      vertex 0.562144 2.94686 2.5
      vertex -3 0 2.5
      vertex 0.74607 2.90575 2.5
    endloop
  endfacet
  facet normal 0 0 1
    outer loop
      vertex 0.376 2.97634 2.5
      vertex -3 0 2.5
      vertex 0.562144 2.94686 2.5
    endloop
  endfacet
  facet normal 0 0 1
    outer loop
      vertex 0.188372 2.99408 2.5
      vertex -3 0 2.5
      vertex 0.376 2.97634 2.5
    endloop
  endfacet
  facet normal 0 0 1
    outer loop
      vertex 0 3 2.5
      vertex -3 0 2.5
      vertex 0.188372 2.99408 2.5
    endloop
  endfacet
  facet normal 0 0 1
    outer loop
      vertex -0.188372 2.99408 2.5
      vertex -3 0 2.5
      vertex 0 3 2.5
    endloop
  endfacet
  facet normal 0 0 1
    outer loop
      vertex -0.376 2.97634 2.5
      vertex -3 0 2.5
      vertex -0.188372 2.99408 2.5
    endloop
  endfacet
  facet normal 0 0 1
    outer loop
      vertex -0.562144 2.94686 2.5
      vertex -3 0 2.5
      vertex -0.376 2.97634 2.5
    endloop
  endfacet
  facet normal 0 0 1
    outer loop
      vertex -0.74607 2.90575 2.5
      vertex -3 0 2.5
      vertex -0.562144 2.94686 2.5
    endloop
  endfacet
  facet normal 0 0 1
    outer loop
      vertex -0.927051 2.85317 2.5
      vertex -3 0 2.5
      vertex -0.74607 2.90575 2.5
    endloop
  endfacet
  facet normal 0 0 1
    outer loop
      vertex -1.10437 2.78933 2.5
      vertex -3 0 2.5
      vertex -0.927051 2.85317 2.5
    endloop
  endfacet
  facet normal 0 0 1
    outer loop
      vertex -1.27734 2.71448 2.5
      vertex -3 0 2.5
      vertex -1.10437 2.78933 2.5
    endloop
  endfacet
  facet normal 0 0 1
    outer loop
      vertex -1.44526 2.62892 2.5
      vertex -3 0 2.5
      vertex -1.27734 2.71448 2.5
    endloop
  endfacet
  facet normal 0 0 1
    outer loop
      vertex -1.60748 2.53298 2.5
      vertex -3 0 2.5
      vertex -1.44526 2.62892 2.5
    endloop
  endfacet
  facet normal 0 0 1
    outer loop
      vertex -1.76336 2.42705 2.5
      vertex -3 0 2.5
      vertex -1.60748 2.53298 2.5
    endloop
  endfacet
  facet normal 0 0 1
    outer loop
      vertex -1.91227 2.31154 2.5
      vertex -3 0 2.5
      vertex -1.76336 2.42705 2.5
    endloop
  endfacet
  facet normal 0 0 1
    outer loop
      vertex -2.05364 2.18691 2.5
      vertex -3 0 2.5
      vertex -1.91227 2.31154 2.5
    endloop
  endfacet
  facet normal 0 0 1
    outer loop
      vertex -2.18691 2.05364 2.5
      vertex -3 0 2.5
      vertex -2.05364 2.18691 2.5
    endloop
  endfacet
  facet normal 0 0 1
    outer loop
      vertex -2.31154 1.91227 2.5
      vertex -3 0 2.5
      vertex -2.18691 2.05364 2.5
    endloop
  endfacet
  facet normal 0 0 1
    outer loop
      vertex -2.42705 1.76336 2.5
      vertex -3 0 2.5
      vertex -2.31154 1.91227 2.5
    endloop
  endfacet
  facet normal 0 0 1
    outer loop
      vertex -2.53298 1.60748 2.5
      vertex -3 0 2.5
      vertex -2.42705 1.76336 2.5
    endloop
  endfacet
  facet normal 0 0 1
    outer loop
      vertex -2.62892 1.44526 2.5
      vertex -3 0 2.5
      vertex -2.53298 1.60748 2.5
    endloop
  endfacet
  facet normal 0 0 1
    outer loop
      vertex -2.71448 1.27734 2.5
      vertex -3 0 2.5
      vertex -2.62892 1.44526 2.5
    endloop
  endfacet
  facet normal 0 0 1
    outer loop
      vertex -2.78933 1.10437 2.5
      vertex -3 0 2.5
      vertex -2.71448 1.27734 2.5
    endloop
  endfacet
  facet normal 0 0 1
    outer loop
      vertex -2.85317 0.927051 2.5
      vertex -3 0 2.5
      vertex -2.78933 1.10437 2.5
    endloop
  endfacet
  facet normal 0 0 1
    outer loop
      vertex -2.90575 0.74607 2.5
      vertex -3 0 2.5
      vertex -2.85317 0.927051 2.5
    endloop
  endfacet
  facet normal 0 0 1
    outer loop
      vertex -2.94686 0.562144 2.5
      vertex -3 0 2.5
      vertex -2.90575 0.74607 2.5
    endloop
  endfacet
  facet normal 0 0 1
    outer loop
      vertex -2.97634 0.376 2.5
      vertex -3 0 2.5
      vertex -2.94686 0.562144 2.5
    endloop
  endfacet
  facet normal 0 0 1
    outer loop
      vertex -2.99408 0.188372 2.5
      vertex -3 0 2.5
      vertex -2.97634 0.376 2.5
    endloop
  endfacet
endsolid OpenSCAD_Model
