solid OpenSCAD_Model
  facet normal 0 0 -1
    outer loop
      vertex -0.998027 0.062791 0
      vertex -0.992115 0.125333 0
      vertex -1 0 0
    endloop
  endfacet
  facet normal 0 0 -1
    outer loop
      vertex -1 0 0
      vertex -0.992115 0.125333 0
      vertex -0.982287 0.187381 0
    endloop
  endfacet
  facet normal 0 0 -1
    outer loop
      vertex -1 0 0
      vertex -0.982287 0.187381 0
      vertex -0.968583 0.24869 0
    endloop
  endfacet
  facet normal 0 0 -1
    outer loop
      vertex -1 0 0
      vertex -0.968583 0.24869 0
      vertex -0.951057 0.309017 0
    endloop
  endfacet
  facet normal 0 0 -1
    outer loop
      vertex -1 0 0
      vertex -0.951057 0.309017 0
      vertex -0.929776 0.368125 0
    endloop
  endfacet
  facet normal 0 0 -1
    outer loop
      vertex -1 0 0
      vertex -0.929776 0.368125 0
      vertex -0.904827 0.425779 0
    endloop
  endfacet
  facet normal 0 0 -1
    outer loop
      vertex -1 0 0
      vertex -0.904827 0.425779 0
      vertex -0.876307 0.481754 0
    endloop
  endfacet
  facet normal 0 0 -1
    outer loop
      vertex -1 0 0
      vertex -0.876307 0.481754 0
      vertex -0.844328 0.535827 0
    endloop
  endfacet
  facet normal 0 0 -1
    outer loop
      vertex -1 0 0
      vertex -0.844328 0.535827 0
      vertex -0.809017 0.587785 0
    endloop
  endfacet
  facet normal 0 0 -1
    outer loop
      vertex -1 0 0
      vertex -0.809017 0.587785 0
      vertex -0.770513 0.637424 0
    endloop
  endfacet
  facet normal 0 0 -1
    outer loop
      vertex -1 0 0
      vertex -0.770513 0.637424 0
      vertex -0.728969 0.684547 0
    endloop
  endfacet
  facet normal 0 0 -1
    outer loop
      vertex -1 0 0
      vertex -0.728969 0.684547 0
      vertex -0.684547 0.728969 0
    endloop
  endfacet
  facet normal 0 0 -1
    outer loop
      vertex -1 0 0
      vertex -0.684547 0.728969 0
      vertex -0.637424 0.770513 0
    endloop
  endfacet
  facet normal 0 0 -1
    outer loop
      vertex -1 0 0
      vertex -0.637424 0.770513 0
      vertex -0.587785 0.809017 0
    endloop
  endfacet
  facet normal 0 0 -1
    outer loop
      vertex -1 0 0
      vertex -0.587785 0.809017 0
      vertex -0.535827 0.844328 0
    endloop
  endfacet
  facet normal 0 0 -1
    outer loop
      vertex -1 0 0
      vertex -0.535827 0.844328 0
      vertex -0.481754 0.876307 0
    endloop
  endfacet
  facet normal 0 0 -1
    outer loop
      vertex -1 0 0
      vertex -0.481754 0.876307 0
      vertex -0.425779 0.904827 0
    endloop
  endfacet
  facet normal 0 0 -1
    outer loop
      vertex -1 0 0
      vertex -0.425779 0.904827 0
      vertex -0.368125 0.929776 0
    endloop
  endfacet
  facet normal 0 0 -1
    outer loop
      vertex -1 0 0
      vertex -0.368125 0.929776 0
      vertex -0.309017 0.951057 0
    endloop
  endfacet
  facet normal 0 0 -1
    outer loop
      vertex -1 0 0
      vertex -0.309017 0.951057 0
      vertex -0.24869 0.968583 0
    endloop
  endfacet
  facet normal 0 0 -1
    outer loop
      vertex -1 0 0
      vertex -0.24869 0.968583 0
      vertex -0.187381 0.982287 0
    endloop
  endfacet
  facet normal 0 0 -1
    outer loop
      vertex -1 0 0
      vertex -0.187381 0.982287 0
      vertex -0.125333 0.992115 0
    endloop
  endfacet
  facet normal 0 0 -1
    outer loop
      vertex -1 0 0
      vertex -0.125333 0.992115 0
      vertex -0.062791 0.998027 0
    endloop
  endfacet
  facet normal 0 0 -1
    outer loop
      vertex -1 0 0
      vertex -0.062791 0.998027 0
      vertex 0 1 0
    endloop
  endfacet
  facet normal 0 0 -1
    outer loop
      vertex -1 0 0
      vertex 0 1 0
      vertex 0.062791 0.998027 0
    endloop
  endfacet
  facet normal 0 0 -1
    outer loop
      vertex -1 0 0
      vertex 0.062791 0.998027 0
      vertex 0.125333 0.992115 0
    endloop
  endfacet
  facet normal 0 0 -1
    outer loop
      vertex -1 0 0
      vertex 0.125333 0.992115 0
      vertex 0.187381 0.982287 0
    endloop
  endfacet
  facet normal 0 0 -1
    outer loop
      vertex -1 0 0
      vertex 0.187381 0.982287 0
      vertex 0.24869 0.968583 0
    endloop
  endfacet
  facet normal 0 0 -1
    outer loop
      vertex -1 0 0
      vertex 0.24869 0.968583 0
      vertex 0.309017 0.951057 0
    endloop
  endfacet
  facet normal 0 0 -1
    outer loop
      vertex -1 0 0
      vertex 0.309017 0.951057 0
      vertex 0.368125 0.929776 0
    endloop
  endfacet
  facet normal 0 0 -1
    outer loop
      vertex -1 0 0
      vertex 0.368125 0.929776 0
      vertex 0.425779 0.904827 0
    endloop
  endfacet
  facet normal 0 0 -1
    outer loop
      vertex -1 0 0
      vertex 0.425779 0.904827 0
      vertex 0.481754 0.876307 0
    endloop
  endfacet
  facet normal 0 0 -1
    outer loop
      vertex -1 0 0
      vertex 0.481754 0.876307 0
      vertex 0.535827 0.844328 0
    endloop
  endfacet
  facet normal 0 0 -1
    outer loop
      vertex -1 0 0
      vertex 0.535827 0.844328 0
      vertex 0.587785 0.809017 0
    endloop
  endfacet
  facet normal 0 0 -1
    outer loop
      vertex -1 0 0
      vertex 0.587785 0.809017 0
      vertex 0.637424 0.770513 0
    endloop
  endfacet
  facet normal 0 0 -1
    outer loop
      vertex -1 0 0
      vertex 0.637424 0.770513 0
      vertex 0.684547 0.728969 0
    endloop
  endfacet
  facet normal 0 0 -1
    outer loop
      vertex -1 0 0
      vertex 0.684547 0.728969 0
      vertex 0.728969 0.684547 0
    endloop
  endfacet
  facet normal 0 0 -1
    outer loop
      vertex -1 0 0
      vertex 0.728969 0.684547 0
      vertex 0.770513 0.637424 0
    endloop
  endfacet
  facet normal 0 0 -1
    outer loop
      vertex -1 0 0
      vertex 0.770513 0.637424 0
      vertex 0.809017 0.587785 0
    endloop
  endfacet
  facet normal 0 0 -1
    outer loop
      vertex -1 0 0
      vertex 0.809017 0.587785 0
      vertex 0.844328 0.535827 0
    endloop
  endfacet
  facet normal 0 0 -1
    outer loop
      vertex -1 0 0
      vertex 0.844328 0.535827 0
      vertex 0.876307 0.481754 0
    endloop
  endfacet
  facet normal 0 0 -1
    outer loop
      vertex -1 0 0
      vertex 0.876307 0.481754 0
      vertex 0.904827 0.425779 0
    endloop
  endfacet
  facet normal 0 0 -1
    outer loop
      vertex -1 0 0
      vertex 0.904827 0.425779 0
      vertex 0.929776 0.368125 0
    endloop
  endfacet
  facet normal 0 0 -1
    outer loop
      vertex -1 0 0
      vertex 0.929776 0.368125 0
      vertex 0.951057 0.309017 0
    endloop
  endfacet
  facet normal 0 0 -1
    outer loop
      vertex -1 0 0
      vertex 0.951057 0.309017 0
      vertex 0.968583 0.24869 0
    endloop
  endfacet
  facet normal 0 0 -1
    outer loop
      vertex -1 0 0
      vertex 0.968583 0.24869 0
      vertex 0.982287 0.187381 0
    endloop
  endfacet
  facet normal 0 0 -1
    outer loop
      vertex -1 0 0
      vertex 0.982287 0.187381 0
      vertex 0.992115 0.125333 0
    endloop
  endfacet
  facet normal 0 0 -1
    outer loop
      vertex -1 0 0
      vertex 0.992115 0.125333 0
      vertex 0.998027 0.062791 0
    endloop
  endfacet
  facet normal 0 0 -1
    outer loop
      vertex -1 0 0
      vertex 0.998027 0.062791 0
      vertex 1 0 0
    endloop
  endfacet
  facet normal 0 0 -1
    outer loop
      vertex -1 0 0
      vertex 1 0 0
      vertex 0.998027 -0.062791 0
    endloop
  endfacet
  facet normal 0 0 -1
    outer loop
      vertex -1 0 0
      vertex 0.998027 -0.062791 0
      vertex 0.992115 -0.125333 0
    endloop
  endfacet
  facet normal 0 0 -1
    outer loop
      vertex -1 0 0
      vertex 0.992115 -0.125333 0
      vertex 0.982287 -0.187381 0
    endloop
  endfacet
  facet normal 0 0 -1
    outer loop
      vertex -1 0 0
      vertex 0.982287 -0.187381 0
      vertex 0.968583 -0.24869 0
    endloop
  endfacet
  facet normal 0 0 -1
    outer loop
      vertex -1 0 0
      vertex 0.968583 -0.24869 0
      vertex 0.951057 -0.309017 0
    endloop
  endfacet
  facet normal 0 0 -1
    outer loop
      vertex -1 0 0
      vertex 0.951057 -0.309017 0
      vertex 0.929776 -0.368125 0
    endloop
  endfacet
  facet normal 0 0 -1
    outer loop
      vertex -1 0 0
      vertex 0.929776 -0.368125 0
      vertex 0.904827 -0.425779 0
    endloop
  endfacet
  facet normal 0 0 -1
    outer loop
      vertex -1 0 0
      vertex 0.904827 -0.425779 0
      vertex 0.876307 -0.481754 0
    endloop
  endfacet
  facet normal 0 0 -1
    outer loop
      vertex -1 0 0
      vertex 0.876307 -0.481754 0
      vertex 0.844328 -0.535827 0
    endloop
  endfacet
  facet normal 0 0 -1
    outer loop
      vertex -1 0 0
      vertex 0.844328 -0.535827 0
      vertex 0.809017 -0.587785 0
    endloop
  endfacet
  facet normal 0 0 -1
    outer loop
      vertex -1 0 0
      vertex 0.809017 -0.587785 0
      vertex 0.770513 -0.637424 0
    endloop
  endfacet
  facet normal 0 0 -1
    outer loop
      vertex -1 0 0
      vertex 0.770513 -0.637424 0
      vertex 0.728969 -0.684547 0
    endloop
  endfacet
  facet normal 0 0 -1
    outer loop
      vertex -1 0 0
      vertex 0.728969 -0.684547 0
      vertex 0.684547 -0.728969 0
    endloop
  endfacet
  facet normal 0 0 -1
    outer loop
      vertex -1 0 0
      vertex 0.684547 -0.728969 0
      vertex 0.637424 -0.770513 0
    endloop
  endfacet
  facet normal 0 0 -1
    outer loop
      vertex -1 0 0
      vertex 0.637424 -0.770513 0
      vertex 0.587785 -0.809017 0
    endloop
  endfacet
  facet normal 0 0 -1
    outer loop
      vertex -1 0 0
      vertex 0.587785 -0.809017 0
      vertex 0.535827 -0.844328 0
    endloop
  endfacet
  facet normal 0 0 -1
    outer loop
      vertex -1 0 0
      vertex 0.535827 -0.844328 0
      vertex 0.481754 -0.876307 0
    endloop
  endfacet
  facet normal 0 0 -1
    outer loop
      vertex -1 0 0
      vertex 0.481754 -0.876307 0
      vertex 0.425779 -0.904827 0
    endloop
  endfacet
  facet normal 0 0 -1
    outer loop
      vertex -1 0 0
      vertex 0.425779 -0.904827 0
      vertex 0.368125 -0.929776 0
    endloop
  endfacet
  facet normal 0 0 -1
    outer loop
      vertex -1 0 0
      vertex 0.368125 -0.929776 0
      vertex 0.309017 -0.951057 0
    endloop
  endfacet
  facet normal 0 0 -1
    outer loop
      vertex -1 0 0
      vertex 0.309017 -0.951057 0
      vertex 0.24869 -0.968583 0
    endloop
  endfacet
  facet normal 0 0 -1
    outer loop
      vertex -1 0 0
      vertex 0.24869 -0.968583 0
      vertex 0.187381 -0.982287 0
    endloop
  endfacet
  facet normal 0 0 -1
    outer loop
      vertex -1 0 0
      vertex 0.187381 -0.982287 0
      vertex 0.125333 -0.992115 0
    endloop
  endfacet
  facet normal 0 0 -1
    outer loop
      vertex -1 0 0
      vertex 0.125333 -0.992115 0
      vertex 0.062791 -0.998027 0
    endloop
  endfacet
  facet normal 0 0 -1
    outer loop
      vertex -1 0 0
      vertex 0.062791 -0.998027 0
      vertex 0 -1 0
    endloop
  endfacet
  facet normal 0 0 -1
    outer loop
      vertex -1 0 0
      vertex 0 -1 0
      vertex -0.062791 -0.998027 0
    endloop
  endfacet
  facet normal 0 0 -1
    outer loop
      vertex -1 0 0
      vertex -0.062791 -0.998027 0
      vertex -0.125333 -0.992115 0
    endloop
  endfacet
  facet normal 0 0 -1
    outer loop
      vertex -1 0 0
      vertex -0.125333 -0.992115 0
      vertex -0.187381 -0.982287 0
    endloop
  endfacet
  facet normal 0 0 -1
    outer loop
      vertex -1 0 0
      vertex -0.187381 -0.982287 0
      vertex -0.24869 -0.968583 0
    endloop
  endfacet
  facet normal 0 0 -1
    outer loop
      vertex -1 0 0
      vertex -0.24869 -0.968583 0
      vertex -0.309017 -0.951057 0
    endloop
  endfacet
  facet normal 0 0 -1
    outer loop
      vertex -1 0 0
      vertex -0.309017 -0.951057 0
      vertex -0.368125 -0.929776 0
    endloop
  endfacet
  facet normal 0 0 -1
    outer loop
      vertex -1 0 0
      vertex -0.368125 -0.929776 0
      vertex -0.425779 -0.904827 0
    endloop
  endfacet
  facet normal 0 0 -1
    outer loop
      vertex -1 0 0
      vertex -0.425779 -0.904827 0
      vertex -0.481754 -0.876307 0
    endloop
  endfacet
  facet normal 0 0 -1
    outer loop
      vertex -1 0 0
      vertex -0.481754 -0.876307 0
      vertex -0.535827 -0.844328 0
    endloop
  endfacet
  facet normal 0 0 -1
    outer loop
      vertex -1 0 0
      vertex -0.535827 -0.844328 0
      vertex -0.587785 -0.809017 0
    endloop
  endfacet
  facet normal 0 0 -1
    outer loop
      vertex -1 0 0
      vertex -0.587785 -0.809017 0
      vertex -0.637424 -0.770513 0
    endloop
  endfacet
  facet normal 0 0 -1
    outer loop
      vertex -1 0 0
      vertex -0.637424 -0.770513 0
      vertex -0.684547 -0.728969 0
    endloop
  endfacet
  facet normal 0 0 -1
    outer loop
      vertex -1 0 0
      vertex -0.684547 -0.728969 0
      vertex -0.728969 -0.684547 0
    endloop
  endfacet
  facet normal 0 0 -1
    outer loop
      vertex -1 0 0
      vertex -0.728969 -0.684547 0
      vertex -0.770513 -0.637424 0
    endloop
  endfacet
  facet normal 0 0 -1
    outer loop
      vertex -1 0 0
      vertex -0.770513 -0.637424 0
      vertex -0.809017 -0.587785 0
    endloop
  endfacet
  facet normal 0 0 -1
    outer loop
      vertex -1 0 0
      vertex -0.809017 -0.587785 0
      vertex -0.844328 -0.535827 0
    endloop
  endfacet
  facet normal 0 0 -1
    outer loop
      vertex -1 0 0
      vertex -0.844328 -0.535827 0
      vertex -0.876307 -0.481754 0
    endloop
  endfacet
  facet normal 0 0 -1
    outer loop
      vertex -1 0 0
      vertex -0.876307 -0.481754 0
      vertex -0.904827 -0.425779 0
    endloop
  endfacet
  facet normal 0 0 -1
    outer loop
      vertex -1 0 0
      vertex -0.904827 -0.425779 0
      vertex -0.929776 -0.368125 0
    endloop
  endfacet
  facet normal 0 0 -1
    outer loop
      vertex -1 0 0
      vertex -0.929776 -0.368125 0
      vertex -0.951057 -0.309017 0
    endloop
  endfacet
  facet normal 0 0 -1
    outer loop
      vertex -1 0 0
      vertex -0.951057 -0.309017 0
      vertex -0.968583 -0.24869 0
    endloop
  endfacet
  facet normal 0 0 -1
    outer loop
      vertex -1 0 0
      vertex -0.968583 -0.24869 0
      vertex -0.982287 -0.187381 0
    endloop
  endfacet
  facet normal 0 0 -1
    outer loop
      vertex -1 0 0
      vertex -0.982287 -0.187381 0
      vertex -0.992115 -0.125333 0
    endloop
  endfacet
  facet normal 0 0 -1
    outer loop
      vertex -1 0 0
      vertex -0.992115 -0.125333 0
      vertex -0.998027 -0.062791 0
    endloop
  endfacet
  facet normal 0.447169 0.0140508 -0.894339
    outer loop
      vertex 0.998027 0.062791 0
      vertex 3 0 1
      vertex 1 0 0
    endloop
  endfacet
  facet normal 0.447169 0.0140533 -0.894339
    outer loop
      vertex 0.998027 0.062791 0
      vertex 2.99408 0.188372 1
      vertex 3 0 1
    endloop
  endfacet
  facet normal 0.445405 0.0421034 -0.894339
    outer loop
      vertex 0.992115 0.125333 0
      vertex 2.99408 0.188372 1
      vertex 0.998027 0.062791 0
    endloop
  endfacet
  facet normal -0.44717 0.0140508 -0.894339
    outer loop
      vertex -2.99408 0.188372 1
      vertex -0.998027 0.062791 0
      vertex -1 0 0
    endloop
  endfacet
  facet normal -0.447169 0.0140533 -0.894339
    outer loop
      vertex -3 0 1
      vertex -2.99408 0.188372 1
      vertex -1 0 0
    endloop
  endfacet
  facet normal -0.447169 -0.0140508 -0.894339
    outer loop
      vertex -3 0 1
      vertex -1 0 0
      vertex -0.998027 -0.062791 0
    endloop
  endfacet
  facet normal -0.447169 -0.0140533 -0.894339
    outer loop
      vertex -3 0 1
      vertex -0.998027 -0.062791 0
      vertex -2.99408 -0.188372 1
    endloop
  endfacet
  facet normal -0.445405 -0.0421034 -0.894339
    outer loop
      vertex -2.99408 -0.188372 1
      vertex -0.998027 -0.062791 0
      vertex -0.992115 -0.125333 0
    endloop
  endfacet
  facet normal -0.445405 -0.042103 -0.894339
    outer loop
      vertex -2.99408 -0.188372 1
      vertex -0.992115 -0.125333 0
      vertex -2.97634 -0.376 1
    endloop
  endfacet
  facet normal -0.441882 -0.0699912 -0.894339
    outer loop
      vertex -2.97634 -0.376 1
      vertex -0.992115 -0.125333 0
      vertex -0.982287 -0.187381 0
    endloop
  endfacet
  facet normal -0.441882 -0.0699865 -0.894339
    outer loop
      vertex -2.97634 -0.376 1
      vertex -0.982287 -0.187381 0
      vertex -2.94686 -0.562144 1
    endloop
  endfacet
  facet normal -0.436616 -0.0975939 -0.894339
    outer loop
      vertex -2.94686 -0.562144 1
      vertex -0.982287 -0.187381 0
      vertex -0.968583 -0.24869 0
    endloop
  endfacet
  facet normal -0.436615 -0.0975967 -0.894339
    outer loop
      vertex -2.94686 -0.562144 1
      vertex -0.968583 -0.24869 0
      vertex -2.90575 -0.74607 1
    endloop
  endfacet
  facet normal -0.429627 -0.124814 -0.894339
    outer loop
      vertex -2.90575 -0.74607 1
      vertex -0.968583 -0.24869 0
      vertex -0.951057 -0.309017 0
    endloop
  endfacet
  facet normal -0.429627 -0.124816 -0.894339
    outer loop
      vertex -2.90575 -0.74607 1
      vertex -0.951057 -0.309017 0
      vertex -2.85317 -0.927051 1
    endloop
  endfacet
  facet normal -0.420939 -0.151553 -0.894339
    outer loop
      vertex -2.85317 -0.927051 1
      vertex -0.951057 -0.309017 0
      vertex -0.929776 -0.368125 0
    endloop
  endfacet
  facet normal -0.42094 -0.15155 -0.894339
    outer loop
      vertex -2.85317 -0.927051 1
      vertex -0.929776 -0.368125 0
      vertex -2.78933 -1.10437 1
    endloop
  endfacet
  facet normal -0.410595 -0.177679 -0.894339
    outer loop
      vertex -2.78933 -1.10437 1
      vertex -0.929776 -0.368125 0
      vertex -0.904827 -0.425779 0
    endloop
  endfacet
  facet normal -0.410595 -0.17768 -0.894339
    outer loop
      vertex -2.78933 -1.10437 1
      vertex -0.904827 -0.425779 0
      vertex -2.71448 -1.27734 1
    endloop
  endfacet
  facet normal -0.398629 -0.203107 -0.894339
    outer loop
      vertex -2.71448 -1.27734 1
      vertex -0.904827 -0.425779 0
      vertex -0.876307 -0.481754 0
    endloop
  endfacet
  facet normal -0.398628 -0.203111 -0.894339
    outer loop
      vertex -2.71448 -1.27734 1
      vertex -0.876307 -0.481754 0
      vertex -2.62892 -1.44526 1
    endloop
  endfacet
  facet normal -0.385087 -0.227742 -0.894339
    outer loop
      vertex -2.62892 -1.44526 1
      vertex -0.876307 -0.481754 0
      vertex -0.844328 -0.535827 0
    endloop
  endfacet
  facet normal -0.385088 -0.22774 -0.894339
    outer loop
      vertex -2.62892 -1.44526 1
      vertex -0.844328 -0.535827 0
      vertex -2.53298 -1.60748 1
    endloop
  endfacet
  facet normal -0.370027 -0.251472 -0.894339
    outer loop
      vertex -2.53298 -1.60748 1
      vertex -0.844328 -0.535827 0
      vertex -0.809017 -0.587785 0
    endloop
  endfacet
  facet normal -0.370028 -0.25147 -0.894339
    outer loop
      vertex -2.53298 -1.60748 1
      vertex -0.809017 -0.587785 0
      vertex -2.42705 -1.76336 1
    endloop
  endfacet
  facet normal -0.353507 -0.274209 -0.894339
    outer loop
      vertex -2.42705 -1.76336 1
      vertex -0.809017 -0.587785 0
      vertex -0.770513 -0.637424 0
    endloop
  endfacet
  facet normal -0.353508 -0.274208 -0.894339
    outer loop
      vertex -2.42705 -1.76336 1
      vertex -0.770513 -0.637424 0
      vertex -2.31154 -1.91227 1
    endloop
  endfacet
  facet normal -0.335594 -0.295862 -0.894339
    outer loop
      vertex -2.31154 -1.91227 1
      vertex -0.770513 -0.637424 0
      vertex -0.728969 -0.684547 0
    endloop
  endfacet
  facet normal -0.335592 -0.295865 -0.894339
    outer loop
      vertex -2.31154 -1.91227 1
      vertex -0.728969 -0.684547 0
      vertex -2.18691 -2.05364 1
    endloop
  endfacet
  facet normal -0.316353 -0.316353 -0.894339
    outer loop
      vertex -0.728969 -0.684547 0
      vertex -0.684547 -0.728969 0
      vertex -2.18691 -2.05364 1
    endloop
  endfacet
  facet normal -0.316353 -0.316353 -0.894339
    outer loop
      vertex -2.18691 -2.05364 1
      vertex -0.684547 -0.728969 0
      vertex -2.05364 -2.18691 1
    endloop
  endfacet
  facet normal -0.295862 -0.335594 -0.894339
    outer loop
      vertex -2.05364 -2.18691 1
      vertex -0.684547 -0.728969 0
      vertex -0.637424 -0.770513 0
    endloop
  endfacet
  facet normal -0.295865 -0.335592 -0.894339
    outer loop
      vertex -2.05364 -2.18691 1
      vertex -0.637424 -0.770513 0
      vertex -1.91227 -2.31154 1
    endloop
  endfacet
  facet normal -0.274209 -0.353507 -0.894339
    outer loop
      vertex -1.91227 -2.31154 1
      vertex -0.637424 -0.770513 0
      vertex -0.587785 -0.809017 0
    endloop
  endfacet
  facet normal -0.274208 -0.353508 -0.894339
    outer loop
      vertex -1.91227 -2.31154 1
      vertex -0.587785 -0.809017 0
      vertex -1.76336 -2.42705 1
    endloop
  endfacet
  facet normal -0.251472 -0.370026 -0.894339
    outer loop
      vertex -1.76336 -2.42705 1
      vertex -0.587785 -0.809017 0
      vertex -0.535827 -0.844328 0
    endloop
  endfacet
  facet normal -0.25147 -0.370028 -0.894339
    outer loop
      vertex -1.76336 -2.42705 1
      vertex -0.535827 -0.844328 0
      vertex -1.60748 -2.53298 1
    endloop
  endfacet
  facet normal -0.227742 -0.385087 -0.894339
    outer loop
      vertex -1.60748 -2.53298 1
      vertex -0.535827 -0.844328 0
      vertex -0.481754 -0.876307 0
    endloop
  endfacet
  facet normal -0.22774 -0.385088 -0.894339
    outer loop
      vertex -1.60748 -2.53298 1
      vertex -0.481754 -0.876307 0
      vertex -1.44526 -2.62892 1
    endloop
  endfacet
  facet normal -0.203107 -0.39863 -0.894339
    outer loop
      vertex -1.44526 -2.62892 1
      vertex -0.481754 -0.876307 0
      vertex -0.425779 -0.904827 0
    endloop
  endfacet
  facet normal -0.203111 -0.398628 -0.894339
    outer loop
      vertex -1.44526 -2.62892 1
      vertex -0.425779 -0.904827 0
      vertex -1.27734 -2.71448 1
    endloop
  endfacet
  facet normal -0.177679 -0.410595 -0.894339
    outer loop
      vertex -1.27734 -2.71448 1
      vertex -0.425779 -0.904827 0
      vertex -0.368125 -0.929776 0
    endloop
  endfacet
  facet normal -0.17768 -0.410595 -0.894339
    outer loop
      vertex -1.27734 -2.71448 1
      vertex -0.368125 -0.929776 0
      vertex -1.10437 -2.78933 1
    endloop
  endfacet
  facet normal -0.151553 -0.420939 -0.894339
    outer loop
      vertex -1.10437 -2.78933 1
      vertex -0.368125 -0.929776 0
      vertex -0.309017 -0.951057 0
    endloop
  endfacet
  facet normal -0.15155 -0.42094 -0.894339
    outer loop
      vertex -1.10437 -2.78933 1
      vertex -0.309017 -0.951057 0
      vertex -0.927051 -2.85317 1
    endloop
  endfacet
  facet normal -0.124814 -0.429627 -0.894339
    outer loop
      vertex -0.927051 -2.85317 1
      vertex -0.309017 -0.951057 0
      vertex -0.24869 -0.968583 0
    endloop
  endfacet
  facet normal -0.124816 -0.429627 -0.894339
    outer loop
      vertex -0.927051 -2.85317 1
      vertex -0.24869 -0.968583 0
      vertex -0.74607 -2.90575 1
    endloop
  endfacet
  facet normal -0.0975939 -0.436616 -0.894339
    outer loop
      vertex -0.74607 -2.90575 1
      vertex -0.24869 -0.968583 0
      vertex -0.187381 -0.982287 0
    endloop
  endfacet
  facet normal -0.0975966 -0.436615 -0.894339
    outer loop
      vertex -0.74607 -2.90575 1
      vertex -0.187381 -0.982287 0
      vertex -0.562144 -2.94686 1
    endloop
  endfacet
  facet normal -0.0699911 -0.441881 -0.894339
    outer loop
      vertex -0.562144 -2.94686 1
      vertex -0.187381 -0.982287 0
      vertex -0.125333 -0.992115 0
    endloop
  endfacet
  facet normal -0.0699865 -0.441882 -0.894339
    outer loop
      vertex -0.562144 -2.94686 1
      vertex -0.125333 -0.992115 0
      vertex -0.376 -2.97634 1
    endloop
  endfacet
  facet normal -0.0421034 -0.445405 -0.894339
    outer loop
      vertex -0.376 -2.97634 1
      vertex -0.125333 -0.992115 0
      vertex -0.062791 -0.998027 0
    endloop
  endfacet
  facet normal -0.042103 -0.445405 -0.894339
    outer loop
      vertex -0.376 -2.97634 1
      vertex -0.062791 -0.998027 0
      vertex -0.188372 -2.99408 1
    endloop
  endfacet
  facet normal -0.0140508 -0.44717 -0.894339
    outer loop
      vertex -0.188372 -2.99408 1
      vertex -0.062791 -0.998027 0
      vertex 0 -1 0
    endloop
  endfacet
  facet normal -0.0140533 -0.447169 -0.894339
    outer loop
      vertex -0.188372 -2.99408 1
      vertex 0 -1 0
      vertex 0 -3 1
    endloop
  endfacet
  facet normal 0.0140508 -0.447169 -0.894339
    outer loop
      vertex 0 -3 1
      vertex 0 -1 0
      vertex 0.062791 -0.998027 0
    endloop
  endfacet
  facet normal 0.0140533 -0.447169 -0.894339
    outer loop
      vertex 0 -3 1
      vertex 0.062791 -0.998027 0
      vertex 0.188372 -2.99408 1
    endloop
  endfacet
  facet normal 0.0421034 -0.445405 -0.894339
    outer loop
      vertex 0.062791 -0.998027 0
      vertex 0.125333 -0.992115 0
      vertex 0.188372 -2.99408 1
    endloop
  endfacet
  facet normal 0.042103 -0.445405 -0.894339
    outer loop
      vertex 0.125333 -0.992115 0
      vertex 0.376 -2.97634 1
      vertex 0.188372 -2.99408 1
    endloop
  endfacet
  facet normal 0.0699912 -0.441882 -0.894339
    outer loop
      vertex 0.125333 -0.992115 0
      vertex 0.187381 -0.982287 0
      vertex 0.376 -2.97634 1
    endloop
  endfacet
  facet normal 0.0699865 -0.441882 -0.894339
    outer loop
      vertex 0.187381 -0.982287 0
      vertex 0.562144 -2.94686 1
      vertex 0.376 -2.97634 1
    endloop
  endfacet
  facet normal 0.0975939 -0.436616 -0.894339
    outer loop
      vertex 0.187381 -0.982287 0
      vertex 0.24869 -0.968583 0
      vertex 0.562144 -2.94686 1
    endloop
  endfacet
  facet normal 0.0975967 -0.436615 -0.894339
    outer loop
      vertex 0.24869 -0.968583 0
      vertex 0.74607 -2.90575 1
      vertex 0.562144 -2.94686 1
    endloop
  endfacet
  facet normal 0.124814 -0.429627 -0.894339
    outer loop
      vertex 0.24869 -0.968583 0
      vertex 0.309017 -0.951057 0
      vertex 0.74607 -2.90575 1
    endloop
  endfacet
  facet normal 0.124816 -0.429627 -0.894339
    outer loop
      vertex 0.309017 -0.951057 0
      vertex 0.927051 -2.85317 1
      vertex 0.74607 -2.90575 1
    endloop
  endfacet
  facet normal 0.151553 -0.420939 -0.894339
    outer loop
      vertex 0.309017 -0.951057 0
      vertex 0.368125 -0.929776 0
      vertex 0.927051 -2.85317 1
    endloop
  endfacet
  facet normal 0.15155 -0.42094 -0.894339
    outer loop
      vertex 0.368125 -0.929776 0
      vertex 1.10437 -2.78933 1
      vertex 0.927051 -2.85317 1
    endloop
  endfacet
  facet normal 0.177679 -0.410595 -0.894339
    outer loop
      vertex 0.368125 -0.929776 0
      vertex 0.425779 -0.904827 0
      vertex 1.10437 -2.78933 1
    endloop
  endfacet
  facet normal 0.17768 -0.410595 -0.894339
    outer loop
      vertex 0.425779 -0.904827 0
      vertex 1.27734 -2.71448 1
      vertex 1.10437 -2.78933 1
    endloop
  endfacet
  facet normal 0.203107 -0.398629 -0.894339
    outer loop
      vertex 0.425779 -0.904827 0
      vertex 0.481754 -0.876307 0
      vertex 1.27734 -2.71448 1
    endloop
  endfacet
  facet normal 0.203111 -0.398628 -0.894339
    outer loop
      vertex 0.481754 -0.876307 0
      vertex 1.44526 -2.62892 1
      vertex 1.27734 -2.71448 1
    endloop
  endfacet
  facet normal 0.227742 -0.385087 -0.894339
    outer loop
      vertex 0.481754 -0.876307 0
      vertex 0.535827 -0.844328 0
      vertex 1.44526 -2.62892 1
    endloop
  endfacet
  facet normal 0.22774 -0.385088 -0.894339
    outer loop
      vertex 0.535827 -0.844328 0
      vertex 1.60748 -2.53298 1
      vertex 1.44526 -2.62892 1
    endloop
  endfacet
  facet normal 0.251472 -0.370027 -0.894339
    outer loop
      vertex 0.535827 -0.844328 0
      vertex 0.587785 -0.809017 0
      vertex 1.60748 -2.53298 1
    endloop
  endfacet
  facet normal 0.25147 -0.370028 -0.894339
    outer loop
      vertex 0.587785 -0.809017 0
      vertex 1.76336 -2.42705 1
      vertex 1.60748 -2.53298 1
    endloop
  endfacet
  facet normal 0.274209 -0.353507 -0.894339
    outer loop
      vertex 0.587785 -0.809017 0
      vertex 0.637424 -0.770513 0
      vertex 1.76336 -2.42705 1
    endloop
  endfacet
  facet normal 0.274208 -0.353508 -0.894339
    outer loop
      vertex 0.637424 -0.770513 0
      vertex 1.91227 -2.31154 1
      vertex 1.76336 -2.42705 1
    endloop
  endfacet
  facet normal 0.295862 -0.335594 -0.894339
    outer loop
      vertex 0.637424 -0.770513 0
      vertex 0.684547 -0.728969 0
      vertex 1.91227 -2.31154 1
    endloop
  endfacet
  facet normal 0.295865 -0.335592 -0.894339
    outer loop
      vertex 0.684547 -0.728969 0
      vertex 2.05364 -2.18691 1
      vertex 1.91227 -2.31154 1
    endloop
  endfacet
  facet normal 0.316353 -0.316353 -0.894339
    outer loop
      vertex 0.728969 -0.684547 0
      vertex 2.18691 -2.05364 1
      vertex 0.684547 -0.728969 0
    endloop
  endfacet
  facet normal 0.316353 -0.316353 -0.894339
    outer loop
      vertex 0.684547 -0.728969 0
      vertex 2.18691 -2.05364 1
      vertex 2.05364 -2.18691 1
    endloop
  endfacet
  facet normal 0.335594 -0.295862 -0.894339
    outer loop
      vertex 0.728969 -0.684547 0
      vertex 0.770513 -0.637424 0
      vertex 2.18691 -2.05364 1
    endloop
  endfacet
  facet normal 0.335592 -0.295865 -0.894339
    outer loop
      vertex 0.770513 -0.637424 0
      vertex 2.31154 -1.91227 1
      vertex 2.18691 -2.05364 1
    endloop
  endfacet
  facet normal 0.353507 -0.274209 -0.894339
    outer loop
      vertex 0.770513 -0.637424 0
      vertex 0.809017 -0.587785 0
      vertex 2.31154 -1.91227 1
    endloop
  endfacet
  facet normal 0.353508 -0.274208 -0.894339
    outer loop
      vertex 0.809017 -0.587785 0
      vertex 2.42705 -1.76336 1
      vertex 2.31154 -1.91227 1
    endloop
  endfacet
  facet normal 0.370026 -0.251472 -0.894339
    outer loop
      vertex 0.809017 -0.587785 0
      vertex 0.844328 -0.535827 0
      vertex 2.42705 -1.76336 1
    endloop
  endfacet
  facet normal 0.370028 -0.25147 -0.894339
    outer loop
      vertex 0.844328 -0.535827 0
      vertex 2.53298 -1.60748 1
      vertex 2.42705 -1.76336 1
    endloop
  endfacet
  facet normal 0.385087 -0.227742 -0.894339
    outer loop
      vertex 0.844328 -0.535827 0
      vertex 0.876307 -0.481754 0
      vertex 2.53298 -1.60748 1
    endloop
  endfacet
  facet normal 0.385088 -0.22774 -0.894339
    outer loop
      vertex 0.876307 -0.481754 0
      vertex 2.62892 -1.44526 1
      vertex 2.53298 -1.60748 1
    endloop
  endfacet
  facet normal 0.39863 -0.203107 -0.894339
    outer loop
      vertex 0.876307 -0.481754 0
      vertex 0.904827 -0.425779 0
      vertex 2.62892 -1.44526 1
    endloop
  endfacet
  facet normal 0.398628 -0.203111 -0.894339
    outer loop
      vertex 0.904827 -0.425779 0
      vertex 2.71448 -1.27734 1
      vertex 2.62892 -1.44526 1
    endloop
  endfacet
  facet normal 0.410595 -0.177679 -0.894339
    outer loop
      vertex 0.904827 -0.425779 0
      vertex 0.929776 -0.368125 0
      vertex 2.71448 -1.27734 1
    endloop
  endfacet
  facet normal 0.410595 -0.17768 -0.894339
    outer loop
      vertex 0.929776 -0.368125 0
      vertex 2.78933 -1.10437 1
      vertex 2.71448 -1.27734 1
    endloop
  endfacet
  facet normal 0.420939 -0.151553 -0.894339
    outer loop
      vertex 0.929776 -0.368125 0
      vertex 0.951057 -0.309017 0
      vertex 2.78933 -1.10437 1
    endloop
  endfacet
  facet normal 0.42094 -0.15155 -0.894339
    outer loop
      vertex 0.951057 -0.309017 0
      vertex 2.85317 -0.927051 1
      vertex 2.78933 -1.10437 1
    endloop
  endfacet
  facet normal 0.429627 -0.124814 -0.894339
    outer loop
      vertex 0.951057 -0.309017 0
      vertex 0.968583 -0.24869 0
      vertex 2.85317 -0.927051 1
    endloop
  endfacet
  facet normal 0.429627 -0.124816 -0.894339
    outer loop
      vertex 0.968583 -0.24869 0
      vertex 2.90575 -0.74607 1
      vertex 2.85317 -0.927051 1
    endloop
  endfacet
  facet normal 0.436616 -0.0975939 -0.894339
    outer loop
      vertex 0.968583 -0.24869 0
      vertex 0.982287 -0.187381 0
      vertex 2.90575 -0.74607 1
    endloop
  endfacet
  facet normal 0.436615 -0.0975966 -0.894339
    outer loop
      vertex 0.982287 -0.187381 0
      vertex 2.94686 -0.562144 1
      vertex 2.90575 -0.74607 1
    endloop
  endfacet
  facet normal 0.441881 -0.0699911 -0.894339
    outer loop
      vertex 0.982287 -0.187381 0
      vertex 0.992115 -0.125333 0
      vertex 2.94686 -0.562144 1
    endloop
  endfacet
  facet normal 0.441882 -0.0699865 -0.894339
    outer loop
      vertex 0.992115 -0.125333 0
      vertex 2.97634 -0.376 1
      vertex 2.94686 -0.562144 1
    endloop
  endfacet
  facet normal 0.445405 -0.0421034 -0.894339
    outer loop
      vertex 0.992115 -0.125333 0
      vertex 0.998027 -0.062791 0
      vertex 2.97634 -0.376 1
    endloop
  endfacet
  facet normal 0.445405 -0.042103 -0.894339
    outer loop
      vertex 0.998027 -0.062791 0
      vertex 2.99408 -0.188372 1
      vertex 2.97634 -0.376 1
    endloop
  endfacet
  facet normal 0.44717 -0.0140508 -0.894339
    outer loop
      vertex 0.998027 -0.062791 0
      vertex 1 0 0
      vertex 2.99408 -0.188372 1
    endloop
  endfacet
  facet normal 0.447169 -0.0140533 -0.894339
    outer loop
      vertex 1 0 0
      vertex 3 0 1
      vertex 2.99408 -0.188372 1
    endloop
  endfacet
  facet normal 0.445405 0.042103 -0.894339
    outer loop
      vertex 0.992115 0.125333 0
      vertex 2.97634 0.376 1
      vertex 2.99408 0.188372 1
    endloop
  endfacet
  facet normal 0.441882 0.0699912 -0.894339
    outer loop
      vertex 0.982287 0.187381 0
      vertex 2.97634 0.376 1
      vertex 0.992115 0.125333 0
    endloop
  endfacet
  facet normal 0.441882 0.0699865 -0.894339
    outer loop
      vertex 0.982287 0.187381 0
      vertex 2.94686 0.562144 1
      vertex 2.97634 0.376 1
    endloop
  endfacet
  facet normal 0.436616 0.0975939 -0.894339
    outer loop
      vertex 0.968583 0.24869 0
      vertex 2.94686 0.562144 1
      vertex 0.982287 0.187381 0
    endloop
  endfacet
  facet normal 0.436615 0.0975967 -0.894339
    outer loop
      vertex 0.968583 0.24869 0
      vertex 2.90575 0.74607 1
      vertex 2.94686 0.562144 1
    endloop
  endfacet
  facet normal 0.429627 0.124814 -0.894339
    outer loop
      vertex 0.951057 0.309017 0
      vertex 2.90575 0.74607 1
      vertex 0.968583 0.24869 0
    endloop
  endfacet
  facet normal 0.429627 0.124816 -0.894339
    outer loop
      vertex 0.951057 0.309017 0
      vertex 2.85317 0.927051 1
      vertex 2.90575 0.74607 1
    endloop
  endfacet
  facet normal 0.420939 0.151553 -0.894339
    outer loop
      vertex 0.929776 0.368125 0
      vertex 2.85317 0.927051 1
      vertex 0.951057 0.309017 0
    endloop
  endfacet
  facet normal 0.42094 0.15155 -0.894339
    outer loop
      vertex 0.929776 0.368125 0
      vertex 2.78933 1.10437 1
      vertex 2.85317 0.927051 1
    endloop
  endfacet
  facet normal 0.410595 0.177679 -0.894339
    outer loop
      vertex 0.904827 0.425779 0
      vertex 2.78933 1.10437 1
      vertex 0.929776 0.368125 0
    endloop
  endfacet
  facet normal 0.410595 0.17768 -0.894339
    outer loop
      vertex 0.904827 0.425779 0
      vertex 2.71448 1.27734 1
      vertex 2.78933 1.10437 1
    endloop
  endfacet
  facet normal 0.398629 0.203107 -0.894339
    outer loop
      vertex 0.876307 0.481754 0
      vertex 2.71448 1.27734 1
      vertex 0.904827 0.425779 0
    endloop
  endfacet
  facet normal 0.398628 0.203111 -0.894339
    outer loop
      vertex 0.876307 0.481754 0
      vertex 2.62892 1.44526 1
      vertex 2.71448 1.27734 1
    endloop
  endfacet
  facet normal 0.385087 0.227742 -0.894339
    outer loop
      vertex 0.844328 0.535827 0
      vertex 2.62892 1.44526 1
      vertex 0.876307 0.481754 0
    endloop
  endfacet
  facet normal 0.385088 0.22774 -0.894339
    outer loop
      vertex 0.844328 0.535827 0
      vertex 2.53298 1.60748 1
      vertex 2.62892 1.44526 1
    endloop
  endfacet
  facet normal 0.370027 0.251472 -0.894339
    outer loop
      vertex 0.809017 0.587785 0
      vertex 2.53298 1.60748 1
      vertex 0.844328 0.535827 0
    endloop
  endfacet
  facet normal 0.370028 0.25147 -0.894339
    outer loop
      vertex 0.809017 0.587785 0
      vertex 2.42705 1.76336 1
      vertex 2.53298 1.60748 1
    endloop
  endfacet
  facet normal 0.353507 0.274209 -0.894339
    outer loop
      vertex 0.770513 0.637424 0
      vertex 2.42705 1.76336 1
      vertex 0.809017 0.587785 0
    endloop
  endfacet
  facet normal 0.353508 0.274208 -0.894339
    outer loop
      vertex 0.770513 0.637424 0
      vertex 2.31154 1.91227 1
      vertex 2.42705 1.76336 1
    endloop
  endfacet
  facet normal 0.335594 0.295862 -0.894339
    outer loop
      vertex 0.728969 0.684547 0
      vertex 2.31154 1.91227 1
      vertex 0.770513 0.637424 0
    endloop
  endfacet
  facet normal 0.335592 0.295865 -0.894339
    outer loop
      vertex 0.728969 0.684547 0
      vertex 2.18691 2.05364 1
      vertex 2.31154 1.91227 1
    endloop
  endfacet
  facet normal 0.316353 0.316353 -0.894339
    outer loop
      vertex 2.05364 2.18691 1
      vertex 2.18691 2.05364 1
      vertex 0.684547 0.728969 0
    endloop
  endfacet
  facet normal 0.316353 0.316353 -0.894339
    outer loop
      vertex 0.684547 0.728969 0
      vertex 2.18691 2.05364 1
      vertex 0.728969 0.684547 0
    endloop
  endfacet
  facet normal 0.295862 0.335594 -0.894339
    outer loop
      vertex 0.637424 0.770513 0
      vertex 2.05364 2.18691 1
      vertex 0.684547 0.728969 0
    endloop
  endfacet
  facet normal 0.295865 0.335592 -0.894339
    outer loop
      vertex 0.637424 0.770513 0
      vertex 1.91227 2.31154 1
      vertex 2.05364 2.18691 1
    endloop
  endfacet
  facet normal 0.274209 0.353507 -0.894339
    outer loop
      vertex 0.587785 0.809017 0
      vertex 1.91227 2.31154 1
      vertex 0.637424 0.770513 0
    endloop
  endfacet
  facet normal 0.274208 0.353508 -0.894339
    outer loop
      vertex 0.587785 0.809017 0
      vertex 1.76336 2.42705 1
      vertex 1.91227 2.31154 1
    endloop
  endfacet
  facet normal 0.251472 0.370026 -0.894339
    outer loop
      vertex 0.535827 0.844328 0
      vertex 1.76336 2.42705 1
      vertex 0.587785 0.809017 0
    endloop
  endfacet
  facet normal 0.25147 0.370028 -0.894339
    outer loop
      vertex 0.535827 0.844328 0
      vertex 1.60748 2.53298 1
      vertex 1.76336 2.42705 1
    endloop
  endfacet
  facet normal 0.227742 0.385087 -0.894339
    outer loop
      vertex 0.481754 0.876307 0
      vertex 1.60748 2.53298 1
      vertex 0.535827 0.844328 0
    endloop
  endfacet
  facet normal 0.22774 0.385088 -0.894339
    outer loop
      vertex 0.481754 0.876307 0
      vertex 1.44526 2.62892 1
      vertex 1.60748 2.53298 1
    endloop
  endfacet
  facet normal 0.203107 0.39863 -0.894339
    outer loop
      vertex 0.425779 0.904827 0
      vertex 1.44526 2.62892 1
      vertex 0.481754 0.876307 0
    endloop
  endfacet
  facet normal 0.203111 0.398628 -0.894339
    outer loop
      vertex 0.425779 0.904827 0
      vertex 1.27734 2.71448 1
      vertex 1.44526 2.62892 1
    endloop
  endfacet
  facet normal 0.177679 0.410595 -0.894339
    outer loop
      vertex 0.368125 0.929776 0
      vertex 1.27734 2.71448 1
      vertex 0.425779 0.904827 0
    endloop
  endfacet
  facet normal 0.17768 0.410595 -0.894339
    outer loop
      vertex 0.368125 0.929776 0
      vertex 1.10437 2.78933 1
      vertex 1.27734 2.71448 1
    endloop
  endfacet
  facet normal 0.151553 0.420939 -0.894339
    outer loop
      vertex 0.309017 0.951057 0
      vertex 1.10437 2.78933 1
      vertex 0.368125 0.929776 0
    endloop
  endfacet
  facet normal 0.15155 0.42094 -0.894339
    outer loop
      vertex 0.309017 0.951057 0
      vertex 0.927051 2.85317 1
      vertex 1.10437 2.78933 1
    endloop
  endfacet
  facet normal 0.124814 0.429627 -0.894339
    outer loop
      vertex 0.24869 0.968583 0
      vertex 0.927051 2.85317 1
      vertex 0.309017 0.951057 0
    endloop
  endfacet
  facet normal 0.124816 0.429627 -0.894339
    outer loop
      vertex 0.24869 0.968583 0
      vertex 0.74607 2.90575 1
      vertex 0.927051 2.85317 1
    endloop
  endfacet
  facet normal 0.0975939 0.436616 -0.894339
    outer loop
      vertex 0.187381 0.982287 0
      vertex 0.74607 2.90575 1
      vertex 0.24869 0.968583 0
    endloop
  endfacet
  facet normal 0.0975966 0.436615 -0.894339
    outer loop
      vertex 0.187381 0.982287 0
      vertex 0.562144 2.94686 1
      vertex 0.74607 2.90575 1
    endloop
  endfacet
  facet normal 0.0699911 0.441881 -0.894339
    outer loop
      vertex 0.125333 0.992115 0
      vertex 0.562144 2.94686 1
      vertex 0.187381 0.982287 0
    endloop
  endfacet
  facet normal 0.0699865 0.441882 -0.894339
    outer loop
      vertex 0.125333 0.992115 0
      vertex 0.376 2.97634 1
      vertex 0.562144 2.94686 1
    endloop
  endfacet
  facet normal 0.0421034 0.445405 -0.894339
    outer loop
      vertex 0.062791 0.998027 0
      vertex 0.376 2.97634 1
      vertex 0.125333 0.992115 0
    endloop
  endfacet
  facet normal 0.042103 0.445405 -0.894339
    outer loop
      vertex 0.062791 0.998027 0
      vertex 0.188372 2.99408 1
      vertex 0.376 2.97634 1
    endloop
  endfacet
  facet normal 0.0140508 0.44717 -0.894339
    outer loop
      vertex 0 1 0
      vertex 0.188372 2.99408 1
      vertex 0.062791 0.998027 0
    endloop
  endfacet
  facet normal 0.0140533 0.447169 -0.894339
    outer loop
      vertex 0 1 0
      vertex 0 3 1
      vertex 0.188372 2.99408 1
    endloop
  endfacet
  facet normal -0.0140508 0.447169 -0.894339
    outer loop
      vertex -0.062791 0.998027 0
      vertex 0 3 1
      vertex 0 1 0
    endloop
  endfacet
  facet normal -0.0140533 0.447169 -0.894339
    outer loop
      vertex -0.188372 2.99408 1
      vertex 0 3 1
      vertex -0.062791 0.998027 0
    endloop
  endfacet
  facet normal -0.0421034 0.445405 -0.894339
    outer loop
      vertex -0.188372 2.99408 1
      vertex -0.062791 0.998027 0
      vertex -0.125333 0.992115 0
    endloop
  endfacet
  facet normal -0.042103 0.445405 -0.894339
    outer loop
      vertex -0.376 2.97634 1
      vertex -0.188372 2.99408 1
      vertex -0.125333 0.992115 0
    endloop
  endfacet
  facet normal -0.0699912 0.441882 -0.894339
    outer loop
      vertex -0.376 2.97634 1
      vertex -0.125333 0.992115 0
      vertex -0.187381 0.982287 0
    endloop
  endfacet
  facet normal -0.0699865 0.441882 -0.894339
    outer loop
      vertex -0.562144 2.94686 1
      vertex -0.376 2.97634 1
      vertex -0.187381 0.982287 0
    endloop
  endfacet
  facet normal -0.0975939 0.436616 -0.894339
    outer loop
      vertex -0.562144 2.94686 1
      vertex -0.187381 0.982287 0
      vertex -0.24869 0.968583 0
    endloop
  endfacet
  facet normal -0.0975967 0.436615 -0.894339
    outer loop
      vertex -0.74607 2.90575 1
      vertex -0.562144 2.94686 1
      vertex -0.24869 0.968583 0
    endloop
  endfacet
  facet normal -0.124814 0.429627 -0.894339
    outer loop
      vertex -0.74607 2.90575 1
      vertex -0.24869 0.968583 0
      vertex -0.309017 0.951057 0
    endloop
  endfacet
  facet normal -0.124816 0.429627 -0.894339
    outer loop
      vertex -0.927051 2.85317 1
      vertex -0.74607 2.90575 1
      vertex -0.309017 0.951057 0
    endloop
  endfacet
  facet normal -0.151553 0.420939 -0.894339
    outer loop
      vertex -0.927051 2.85317 1
      vertex -0.309017 0.951057 0
      vertex -0.368125 0.929776 0
    endloop
  endfacet
  facet normal -0.15155 0.42094 -0.894339
    outer loop
      vertex -1.10437 2.78933 1
      vertex -0.927051 2.85317 1
      vertex -0.368125 0.929776 0
    endloop
  endfacet
  facet normal -0.177679 0.410595 -0.894339
    outer loop
      vertex -1.10437 2.78933 1
      vertex -0.368125 0.929776 0
      vertex -0.425779 0.904827 0
    endloop
  endfacet
  facet normal -0.17768 0.410595 -0.894339
    outer loop
      vertex -1.27734 2.71448 1
      vertex -1.10437 2.78933 1
      vertex -0.425779 0.904827 0
    endloop
  endfacet
  facet normal -0.203107 0.398629 -0.894339
    outer loop
      vertex -1.27734 2.71448 1
      vertex -0.425779 0.904827 0
      vertex -0.481754 0.876307 0
    endloop
  endfacet
  facet normal -0.203111 0.398628 -0.894339
    outer loop
      vertex -1.44526 2.62892 1
      vertex -1.27734 2.71448 1
      vertex -0.481754 0.876307 0
    endloop
  endfacet
  facet normal -0.227742 0.385087 -0.894339
    outer loop
      vertex -1.44526 2.62892 1
      vertex -0.481754 0.876307 0
      vertex -0.535827 0.844328 0
    endloop
  endfacet
  facet normal -0.22774 0.385088 -0.894339
    outer loop
      vertex -1.60748 2.53298 1
      vertex -1.44526 2.62892 1
      vertex -0.535827 0.844328 0
    endloop
  endfacet
  facet normal -0.251472 0.370027 -0.894339
    outer loop
      vertex -1.60748 2.53298 1
      vertex -0.535827 0.844328 0
      vertex -0.587785 0.809017 0
    endloop
  endfacet
  facet normal -0.25147 0.370028 -0.894339
    outer loop
      vertex -1.76336 2.42705 1
      vertex -1.60748 2.53298 1
      vertex -0.587785 0.809017 0
    endloop
  endfacet
  facet normal -0.274209 0.353507 -0.894339
    outer loop
      vertex -1.76336 2.42705 1
      vertex -0.587785 0.809017 0
      vertex -0.637424 0.770513 0
    endloop
  endfacet
  facet normal -0.274208 0.353508 -0.894339
    outer loop
      vertex -1.91227 2.31154 1
      vertex -1.76336 2.42705 1
      vertex -0.637424 0.770513 0
    endloop
  endfacet
  facet normal -0.295862 0.335594 -0.894339
    outer loop
      vertex -1.91227 2.31154 1
      vertex -0.637424 0.770513 0
      vertex -0.684547 0.728969 0
    endloop
  endfacet
  facet normal -0.295865 0.335592 -0.894339
    outer loop
      vertex -2.05364 2.18691 1
      vertex -1.91227 2.31154 1
      vertex -0.684547 0.728969 0
    endloop
  endfacet
  facet normal -0.316353 0.316353 -0.894339
    outer loop
      vertex -2.05364 2.18691 1
      vertex -0.684547 0.728969 0
      vertex -2.18691 2.05364 1
    endloop
  endfacet
  facet normal -0.316353 0.316353 -0.894339
    outer loop
      vertex -2.18691 2.05364 1
      vertex -0.684547 0.728969 0
      vertex -0.728969 0.684547 0
    endloop
  endfacet
  facet normal -0.335594 0.295862 -0.894339
    outer loop
      vertex -2.18691 2.05364 1
      vertex -0.728969 0.684547 0
      vertex -0.770513 0.637424 0
    endloop
  endfacet
  facet normal -0.335592 0.295865 -0.894339
    outer loop
      vertex -2.31154 1.91227 1
      vertex -2.18691 2.05364 1
      vertex -0.770513 0.637424 0
    endloop
  endfacet
  facet normal -0.353507 0.274209 -0.894339
    outer loop
      vertex -2.31154 1.91227 1
      vertex -0.770513 0.637424 0
      vertex -0.809017 0.587785 0
    endloop
  endfacet
  facet normal -0.353508 0.274208 -0.894339
    outer loop
      vertex -2.42705 1.76336 1
      vertex -2.31154 1.91227 1
      vertex -0.809017 0.587785 0
    endloop
  endfacet
  facet normal -0.370026 0.251472 -0.894339
    outer loop
      vertex -2.42705 1.76336 1
      vertex -0.809017 0.587785 0
      vertex -0.844328 0.535827 0
    endloop
  endfacet
  facet normal -0.370028 0.25147 -0.894339
    outer loop
      vertex -2.53298 1.60748 1
      vertex -2.42705 1.76336 1
      vertex -0.844328 0.535827 0
    endloop
  endfacet
  facet normal -0.385087 0.227742 -0.894339
    outer loop
      vertex -2.53298 1.60748 1
      vertex -0.844328 0.535827 0
      vertex -0.876307 0.481754 0
    endloop
  endfacet
  facet normal -0.385088 0.22774 -0.894339
    outer loop
      vertex -2.62892 1.44526 1
      vertex -2.53298 1.60748 1
      vertex -0.876307 0.481754 0
    endloop
  endfacet
  facet normal -0.39863 0.203107 -0.894339
    outer loop
      vertex -2.62892 1.44526 1
      vertex -0.876307 0.481754 0
      vertex -0.904827 0.425779 0
    endloop
  endfacet
  facet normal -0.398628 0.203111 -0.894339
    outer loop
      vertex -2.71448 1.27734 1
      vertex -2.62892 1.44526 1
      vertex -0.904827 0.425779 0
    endloop
  endfacet
  facet normal -0.410595 0.177679 -0.894339
    outer loop
      vertex -2.71448 1.27734 1
      vertex -0.904827 0.425779 0
      vertex -0.929776 0.368125 0
    endloop
  endfacet
  facet normal -0.410595 0.17768 -0.894339
    outer loop
      vertex -2.78933 1.10437 1
      vertex -2.71448 1.27734 1
      vertex -0.929776 0.368125 0
    endloop
  endfacet
  facet normal -0.420939 0.151553 -0.894339
    outer loop
      vertex -2.78933 1.10437 1
      vertex -0.929776 0.368125 0
      vertex -0.951057 0.309017 0
    endloop
  endfacet
  facet normal -0.42094 0.15155 -0.894339
    outer loop
      vertex -2.85317 0.927051 1
      vertex -2.78933 1.10437 1
      vertex -0.951057 0.309017 0
    endloop
  endfacet
  facet normal -0.429627 0.124814 -0.894339
    outer loop
      vertex -2.85317 0.927051 1
      vertex -0.951057 0.309017 0
      vertex -0.968583 0.24869 0
    endloop
  endfacet
  facet normal -0.429627 0.124816 -0.894339
    outer loop
      vertex -2.90575 0.74607 1
      vertex -2.85317 0.927051 1
      vertex -0.968583 0.24869 0
    endloop
  endfacet
  facet normal -0.436616 0.0975939 -0.894339
    outer loop
      vertex -2.90575 0.74607 1
      vertex -0.968583 0.24869 0
      vertex -0.982287 0.187381 0
    endloop
  endfacet
  facet normal -0.436615 0.0975966 -0.894339
    outer loop
      vertex -2.94686 0.562144 1
      vertex -2.90575 0.74607 1
      vertex -0.982287 0.187381 0
    endloop
  endfacet
  facet normal -0.441881 0.0699911 -0.894339
    outer loop
      vertex -2.94686 0.562144 1
      vertex -0.982287 0.187381 0
      vertex -0.992115 0.125333 0
    endloop
  endfacet
  facet normal -0.441882 0.0699865 -0.894339
    outer loop
      vertex -2.97634 0.376 1
      vertex -2.94686 0.562144 1
      vertex -0.992115 0.125333 0
    endloop
  endfacet
  facet normal -0.445405 0.0421034 -0.894339
    outer loop
      vertex -2.97634 0.376 1
      vertex -0.992115 0.125333 0
      vertex -0.998027 0.062791 0
    endloop
  endfacet
  facet normal -0.445405 0.042103 -0.894339
    outer loop
      vertex -2.99408 0.188372 1
      vertex -2.97634 0.376 1
      vertex -0.998027 0.062791 0
    endloop
  endfacet
  facet normal 0 0 1
    outer loop
      vertex -3 0 1
      vertex -2.99408 -0.188372 1
      vertex -2.97634 -0.376 1
    endloop
  endfacet
  facet normal 0 0 1
    outer loop
      vertex -2.90575 -0.74607 1
      vertex -3 0 1
      vertex -2.94686 -0.562144 1
    endloop
  endfacet
  facet normal 0 0 1
    outer loop
      vertex -2.94686 -0.562144 1
      vertex -3 0 1
      vertex -2.97634 -0.376 1
    endloop
  endfacet
  facet normal 0 0 1
    outer loop
      vertex -2.85317 -0.927051 1
      vertex -3 0 1
      vertex -2.90575 -0.74607 1
    endloop
  endfacet
  facet normal 0 0 1
    outer loop
      vertex -2.78933 -1.10437 1
      vertex -3 0 1
      vertex -2.85317 -0.927051 1
    endloop
  endfacet
  facet normal 0 0 1
    outer loop
      vertex -2.71448 -1.27734 1
      vertex -3 0 1
      vertex -2.78933 -1.10437 1
    endloop
  endfacet
  facet normal 0 0 1
    outer loop
      vertex -2.62892 -1.44526 1
      vertex -3 0 1
      vertex -2.71448 -1.27734 1
    endloop
  endfacet
  facet normal 0 0 1
    outer loop
      vertex -2.53298 -1.60748 1
      vertex -3 0 1
      vertex -2.62892 -1.44526 1
    endloop
  endfacet
  facet normal 0 0 1
    outer loop
      vertex -2.42705 -1.76336 1
      vertex -3 0 1
      vertex -2.53298 -1.60748 1
    endloop
  endfacet
  facet normal 0 0 1
    outer loop
      vertex -2.31154 -1.91227 1
      vertex -3 0 1
      vertex -2.42705 -1.76336 1
    endloop
  endfacet
  facet normal 0 0 1
    outer loop
      vertex -2.18691 -2.05364 1
      vertex -3 0 1
      vertex -2.31154 -1.91227 1
    endloop
  endfacet
  facet normal 0 0 1
    outer loop
      vertex -2.05364 -2.18691 1
      vertex -3 0 1
      vertex -2.18691 -2.05364 1
    endloop
  endfacet
  facet normal 0 0 1
    outer loop
      vertex -1.91227 -2.31154 1
      vertex -3 0 1
      vertex -2.05364 -2.18691 1
    endloop
  endfacet
  facet normal 0 0 1
    outer loop
      vertex -1.76336 -2.42705 1
      vertex -3 0 1
      vertex -1.91227 -2.31154 1
    endloop
  endfacet
  facet normal 0 0 1
    outer loop
      vertex -1.60748 -2.53298 1
      vertex -3 0 1
      vertex -1.76336 -2.42705 1
    endloop
  endfacet
  facet normal 0 0 1
    outer loop
      vertex -1.44526 -2.62892 1
      vertex -3 0 1
      vertex -1.60748 -2.53298 1
    endloop
  endfacet
  facet normal 0 0 1
    outer loop
      vertex -1.27734 -2.71448 1
      vertex -3 0 1
      vertex -1.44526 -2.62892 1
    endloop
  endfacet
  facet normal 0 0 1
    outer loop
      vertex -1.10437 -2.78933 1
      vertex -3 0 1
      vertex -1.27734 -2.71448 1
    endloop
  endfacet
  facet normal 0 0 1
    outer loop
      vertex -0.927051 -2.85317 1
      vertex -3 0 1
      vertex -1.10437 -2.78933 1
    endloop
  endfacet
  facet normal 0 0 1
    outer loop
      vertex -0.74607 -2.90575 1
      vertex -3 0 1
      vertex -0.927051 -2.85317 1
    endloop
  endfacet
  facet normal 0 0 1
    outer loop
      vertex -0.562144 -2.94686 1
      vertex -3 0 1
      vertex -0.74607 -2.90575 1
    endloop
  endfacet
  facet normal 0 0 1
    outer loop
      vertex -0.376 -2.97634 1
      vertex -3 0 1
      vertex -0.562144 -2.94686 1
    endloop
  endfacet
  facet normal 0 0 1
    outer loop
      vertex -0.188372 -2.99408 1
      vertex -3 0 1
      vertex -0.376 -2.97634 1
    endloop
  endfacet
  facet normal 0 0 1
    outer loop
      vertex 0 -3 1
      vertex -3 0 1
      vertex -0.188372 -2.99408 1
    endloop
  endfacet
  facet normal 0 0 1
    outer loop
      vertex 0.188372 -2.99408 1
      vertex -3 0 1
      vertex 0 -3 1
    endloop
  endfacet
  facet normal 0 0 1
    outer loop
      vertex 0.376 -2.97634 1
      vertex -3 0 1
      vertex 0.188372 -2.99408 1
    endloop
  endfacet
  facet normal 0 0 1
    outer loop
      vertex 0.562144 -2.94686 1
      vertex -3 0 1
      vertex 0.376 -2.97634 1
    endloop
  endfacet
  facet normal 0 0 1
    outer loop
      vertex 0.74607 -2.90575 1
      vertex -3 0 1
      vertex 0.562144 -2.94686 1
    endloop
  endfacet
  facet normal 0 0 1
    outer loop
      vertex 0.927051 -2.85317 1
      vertex -3 0 1
      vertex 0.74607 -2.90575 1
    endloop
  endfacet
  facet normal 0 0 1
    outer loop
      vertex 1.10437 -2.78933 1
      vertex -3 0 1
      vertex 0.927051 -2.85317 1
    endloop
  endfacet
  facet normal 0 0 1
    outer loop
      vertex 1.27734 -2.71448 1
      vertex -3 0 1
      vertex 1.10437 -2.78933 1
    endloop
  endfacet
  facet normal 0 0 1
    outer loop
      vertex 1.44526 -2.62892 1
      vertex -3 0 1
      vertex 1.27734 -2.71448 1
    endloop
  endfacet
  facet normal 0 0 1
    outer loop
      vertex 1.60748 -2.53298 1
      vertex -3 0 1
      vertex 1.44526 -2.62892 1
    endloop
  endfacet
  facet normal 0 0 1
    outer loop
      vertex 1.76336 -2.42705 1
      vertex -3 0 1
      vertex 1.60748 -2.53298 1
    endloop
  endfacet
  facet normal 0 0 1
    outer loop
      vertex 1.91227 -2.31154 1
      vertex -3 0 1
      vertex 1.76336 -2.42705 1
    endloop
  endfacet
  facet normal 0 0 1
    outer loop
      vertex 2.05364 -2.18691 1
      vertex -3 0 1
      vertex 1.91227 -2.31154 1
    endloop
  endfacet
  facet normal 0 0 1
    outer loop
      vertex 2.18691 -2.05364 1
      vertex -3 0 1
      vertex 2.05364 -2.18691 1
    endloop
  endfacet
  facet normal 0 0 1
    outer loop
      vertex 2.31154 -1.91227 1
      vertex -3 0 1
      vertex 2.18691 -2.05364 1
    endloop
  endfacet
  facet normal 0 0 1
    outer loop
      vertex 2.42705 -1.76336 1
      vertex -3 0 1
      vertex 2.31154 -1.91227 1
    endloop
  endfacet
  facet normal 0 0 1
    outer loop
      vertex 2.53298 -1.60748 1
      vertex -3 0 1
      vertex 2.42705 -1.76336 1
    endloop
  endfacet
  facet normal 0 0 1
    outer loop
      vertex 2.62892 -1.44526 1
      vertex -3 0 1
      vertex 2.53298 -1.60748 1
    endloop
  endfacet
  facet normal 0 0 1
    outer loop
      vertex 2.71448 -1.27734 1
      vertex -3 0 1
      vertex 2.62892 -1.44526 1
    endloop
  endfacet
  facet normal 0 0 1
    outer loop
      vertex 2.78933 -1.10437 1
      vertex -3 0 1
      vertex 2.71448 -1.27734 1
    endloop
  endfacet
  facet normal 0 0 1
    outer loop
      vertex 2.85317 -0.927051 1
      vertex -3 0 1
      vertex 2.78933 -1.10437 1
    endloop
  endfacet
  facet normal 0 0 1
    outer loop
      vertex 2.90575 -0.74607 1
      vertex -3 0 1
      vertex 2.85317 -0.927051 1
    endloop
  endfacet
  facet normal 0 0 1
    outer loop
      vertex 2.94686 -0.562144 1
      vertex -3 0 1
      vertex 2.90575 -0.74607 1
    endloop
  endfacet
  facet normal 0 0 1
    outer loop
      vertex 2.97634 -0.376 1
      vertex -3 0 1
      vertex 2.94686 -0.562144 1
    endloop
  endfacet
  facet normal 0 0 1
    outer loop
      vertex 2.99408 -0.188372 1
      vertex -3 0 1
      vertex 2.97634 -0.376 1
    endloop
  endfacet
  facet normal 0 0 1
    outer loop
      vertex 3 0 1
      vertex -3 0 1
      vertex 2.99408 -0.188372 1
    endloop
  endfacet
  facet normal 0 0 1
    outer loop
      vertex 2.99408 0.188372 1
      vertex -3 0 1
      vertex 3 0 1
    endloop
  endfacet
  facet normal 0 0 1
    outer loop
      vertex 2.97634 0.376 1
      vertex -3 0 1
      vertex 2.99408 0.188372 1
    endloop
  endfacet
  facet normal 0 0 1
    outer loop
      vertex 2.94686 0.562144 1
      vertex -3 0 1
      vertex 2.97634 0.376 1
    endloop
  endfacet
  facet normal 0 0 1
    outer loop
      vertex 2.90575 0.74607 1
      vertex -3 0 1
      vertex 2.94686 0.562144 1
    endloop
  endfacet
  facet normal 0 0 1
    outer loop
      vertex 2.85317 0.927051 1
      vertex -3 0 1
      vertex 2.90575 0.74607 1
    endloop
  endfacet
  facet normal 0 0 1
    outer loop
      vertex 2.78933 1.10437 1
      vertex -3 0 1
      vertex 2.85317 0.927051 1
    endloop
  endfacet
  facet normal 0 0 1
    outer loop
      vertex 2.71448 1.27734 1
      vertex -3 0 1
      vertex 2.78933 1.10437 1
    endloop
  endfacet
  facet normal 0 0 1
    outer loop
      vertex 2.62892 1.44526 1
      vertex -3 0 1
      vertex 2.71448 1.27734 1
    endloop
  endfacet
  facet normal 0 0 1
    outer loop
      vertex 2.53298 1.60748 1
      vertex -3 0 1
      vertex 2.62892 1.44526 1
    endloop
  endfacet
  facet normal 0 0 1
    outer loop
      vertex 2.42705 1.76336 1
      vertex -3 0 1
      vertex 2.53298 1.60748 1
    endloop
  endfacet
  facet normal 0 0 1
    outer loop
      vertex 2.31154 1.91227 1
      vertex -3 0 1
      vertex 2.42705 1.76336 1
    endloop
  endfacet
  facet normal 0 0 1
    outer loop
      vertex 2.18691 2.05364 1
      vertex -3 0 1
      vertex 2.31154 1.91227 1
    endloop
  endfacet
  facet normal 0 0 1
    outer loop
      vertex 2.05364 2.18691 1
      vertex -3 0 1
      vertex 2.18691 2.05364 1
    endloop
  endfacet
  facet normal 0 0 1
    outer loop
      vertex 1.91227 2.31154 1
      vertex -3 0 1
      vertex 2.05364 2.18691 1
    endloop
  endfacet
  facet normal 0 0 1
    outer loop
      vertex 1.76336 2.42705 1
      vertex -3 0 1
      vertex 1.91227 2.31154 1
    endloop
  endfacet
  facet normal 0 0 1
    outer loop
      vertex 1.60748 2.53298 1
      vertex -3 0 1
      vertex 1.76336 2.42705 1
    endloop
  endfacet
  facet normal 0 0 1
    outer loop
      vertex 1.44526 2.62892 1
      vertex -3 0 1
      vertex 1.60748 2.53298 1
    endloop
  endfacet
  facet normal 0 0 1
    outer loop
      vertex 1.27734 2.71448 1
      vertex -3 0 1
      vertex 1.44526 2.62892 1
    endloop
  endfacet
  facet normal 0 0 1
    outer loop
      vertex 1.10437 2.78933 1
      vertex -3 0 1
      vertex 1.27734 2.71448 1
    endloop
  endfacet
  facet normal 0 0 1
    outer loop
      vertex 0.927051 2.85317 1
      vertex -3 0 1
      vertex 1.10437 2.78933 1
    endloop
  endfacet
  facet normal 0 0 1
    outer loop
      vertex 0.74607 2.90575 1
      vertex -3 0 1
      vertex 0.927051 2.85317 1
    endloop
  endfacet
  facet normal 0 0 1
    outer loop
      vertex 0.562144 2.94686 1
      vertex -3 0 1
      vertex 0.74607 2.90575 1
    endloop
  endfacet
  facet normal 0 0 1
    outer loop
      vertex 0.376 2.97634 1
      vertex -3 0 1
      vertex 0.562144 2.94686 1
    endloop
  endfacet
  facet normal 0 0 1
    outer loop
      vertex 0.188372 2.99408 1
      vertex -3 0 1
      vertex 0.376 2.97634 1
    endloop
  endfacet
  facet normal 0 0 1
    outer loop
      vertex 0 3 1
      vertex -3 0 1
      vertex 0.188372 2.99408 1
    endloop
  endfacet
  facet normal 0 0 1
    outer loop
      vertex -0.188372 2.99408 1
      vertex -3 0 1
      vertex 0 3 1
    endloop
  endfacet
  facet normal 0 0 1
    outer loop
      vertex -0.376 2.97634 1
      vertex -3 0 1
      vertex -0.188372 2.99408 1
    endloop
  endfacet
  facet normal 0 0 1
    outer loop
      vertex -0.562144 2.94686 1
      vertex -3 0 1
      vertex -0.376 2.97634 1
    endloop
  endfacet
  facet normal 0 0 1
    outer loop
      vertex -0.74607 2.90575 1
      vertex -3 0 1
      vertex -0.562144 2.94686 1
    endloop
  endfacet
  facet normal 0 0 1
    outer loop
      vertex -0.927051 2.85317 1
      vertex -3 0 1
      vertex -0.74607 2.90575 1
    endloop
  endfacet
  facet normal 0 0 1
    outer loop
      vertex -1.10437 2.78933 1
      vertex -3 0 1
      vertex -0.927051 2.85317 1
    endloop
  endfacet
  facet normal 0 0 1
    outer loop
      vertex -1.27734 2.71448 1
      vertex -3 0 1
      vertex -1.10437 2.78933 1
    endloop
  endfacet
  facet normal 0 0 1
    outer loop
      vertex -1.44526 2.62892 1
      vertex -3 0 1
      vertex -1.27734 2.71448 1
    endloop
  endfacet
  facet normal 0 0 1
    outer loop
      vertex -1.60748 2.53298 1
      vertex -3 0 1
      vertex -1.44526 2.62892 1
    endloop
  endfacet
  facet normal 0 0 1
    outer loop
      vertex -1.76336 2.42705 1
      vertex -3 0 1
      vertex -1.60748 2.53298 1
    endloop
  endfacet
  facet normal 0 0 1
    outer loop
      vertex -1.91227 2.31154 1
      vertex -3 0 1
      vertex -1.76336 2.42705 1
    endloop
  endfacet
  facet normal 0 0 1
    outer loop
      vertex -2.05364 2.18691 1
      vertex -3 0 1
      vertex -1.91227 2.31154 1
    endloop
  endfacet
  facet normal 0 0 1
    outer loop
      vertex -2.18691 2.05364 1
      vertex -3 0 1
      vertex -2.05364 2.18691 1
    endloop
  endfacet
  facet normal 0 0 1
    outer loop
      vertex -2.31154 1.91227 1
      vertex -3 0 1
      vertex -2.18691 2.05364 1
    endloop
  endfacet
  facet normal 0 0 1
    outer loop
      vertex -2.42705 1.76336 1
      vertex -3 0 1
      vertex -2.31154 1.91227 1
    endloop
  endfacet
  facet normal 0 0 1
    outer loop
      vertex -2.53298 1.60748 1
      vertex -3 0 1
      vertex -2.42705 1.76336 1
    endloop
  endfacet
  facet normal 0 0 1
    outer loop
      vertex -2.62892 1.44526 1
      vertex -3 0 1
      vertex -2.53298 1.60748 1
    endloop
  endfacet
  facet normal 0 0 1
    outer loop
      vertex -2.71448 1.27734 1
      vertex -3 0 1
      vertex -2.62892 1.44526 1
    endloop
  endfacet
  facet normal 0 0 1
    outer loop
      vertex -2.78933 1.10437 1
      vertex -3 0 1
      vertex -2.71448 1.27734 1
    endloop
  endfacet
  facet normal 0 0 1
    outer loop
      vertex -2.85317 0.927051 1
      vertex -3 0 1
      vertex -2.78933 1.10437 1
    endloop
  endfacet
  facet normal 0 0 1
    outer loop
      vertex -2.90575 0.74607 1
      vertex -3 0 1
      vertex -2.85317 0.927051 1
    endloop
  endfacet
  facet normal 0 0 1
    outer loop
      vertex -2.94686 0.562144 1
      vertex -3 0 1
      vertex -2.90575 0.74607 1
    endloop
  endfacet
  facet normal 0 0 1
    outer loop
      vertex -2.97634 0.376 1
      vertex -3 0 1
      vertex -2.94686 0.562144 1
    endloop
  endfacet
  facet normal 0 0 1
    outer loop
      vertex -2.99408 0.188372 1
      vertex -3 0 1
      vertex -2.97634 0.376 1
    endloop
  endfacet
endsolid OpenSCAD_Model
